<!DOCTYPE svg PUBLIC "-//W3C//DTD SVG 1.1//EN" "http://www.w3.org/Graphics/SVG/1.1/DTD/svg11.dtd">
<!-- Uploaded to: SVG Repo, www.svgrepo.com, Transformed by: SVG Repo Mixer Tools -->
<svg height="800px" width="800px" version="1.1" id="Layer_1" xmlns="http://www.w3.org/2000/svg" xmlns:xlink="http://www.w3.org/1999/xlink" viewBox="0 0 392.598 392.598" xml:space="preserve" fill="#000000">
<g id="SVGRepo_bgCarrier" stroke-width="0"/>
<g id="SVGRepo_tracerCarrier" stroke-linecap="round" stroke-linejoin="round"/>
<g id="SVGRepo_iconCarrier"> <path style="fill:#FFFFFF;" d="M359.855,21.786H32.743c-6.012,0-10.925,4.848-10.925,10.925v73.503h53.915 c6.012,0,10.925,4.848,10.925,10.925s-4.848,10.925-10.925,10.925H21.818v23.596h26.117c6.012,0,10.925,4.848,10.925,10.925 c0,6.012-4.848,10.925-10.925,10.925H21.818v186.44c0,6.012,4.848,10.925,10.925,10.925h327.111c6.012,0,10.925-4.848,10.925-10.925 V32.711C370.78,26.699,365.867,21.786,359.855,21.786z"/> <path style="fill:#d32f2f;" d="M370.78,32.711c0-6.012-4.848-10.925-10.925-10.925H32.743c-6.012,0-10.925,4.848-10.925,10.925 v41.374H370.78L370.78,32.711L370.78,32.711z"/> <path style="fill:#ffffff;" d="M256.937,370.489c-61.091,0-110.869-49.778-110.869-110.869s49.778-110.869,110.869-110.869 s110.869,49.778,110.869,110.869S318.093,370.489,256.937,370.489z"/> <g> <path style="fill:#a30027;" d="M344.598,58.828H154.796c-6.012,0-10.925-4.848-10.925-10.925c0-6.012,4.848-10.925,10.925-10.925 h189.802c6.012,0,10.925,4.848,10.925,10.925S350.61,58.828,344.598,58.828z"/> <path style="fill:#a30027;" d="M113.358,58.828h-10.925c-6.012,0-10.925-4.848-10.925-10.925c0-6.012,4.848-10.925,10.925-10.925 h10.925c6.012,0,10.925,4.848,10.925,10.925S119.434,58.828,113.358,58.828z"/> <path style="fill:#a30027;" d="M58.925,58.828H48c-6.012,0-10.925-4.848-10.925-10.925c0-6.012,4.848-10.925,10.925-10.925h10.925 c6.012,0,10.925,4.848,10.925,10.925S64.937,58.828,58.925,58.828z"/> <path style="fill:#a30027;" d="M359.855,0H32.743C14.707,0,0.032,14.675,0.032,32.711v327.111 c0,18.101,14.675,32.776,32.711,32.776h327.111c18.036,0,32.711-14.675,32.711-32.711V32.711C392.566,14.675,377.891,0,359.855,0z M173.802,191.483c-4.396,17.778-7.111,37.301-7.822,57.923h-52.17c1.939-25.729,10.925-49.778,25.018-70.271 C149.301,184.048,161.067,188.121,173.802,191.483z M153.115,161.616c13.77-14.545,30.384-26.246,48.808-34.133 c-8.663,11.83-16.097,26.376-21.915,43.055C170.311,168.016,161.196,165.042,153.115,161.616z M165.98,271.192 c0.711,20.234,3.426,39.887,7.887,57.923c-12.929,3.297-24.824,7.499-35.297,12.347c-14.158-20.816-22.691-45.059-24.63-70.335 h52.04V271.192z M164.752,370.747c-4.267-3.62-8.339-7.434-12.154-11.507c8.275-3.491,17.519-6.465,27.41-9.051 c2.521,7.24,5.43,14.158,8.469,20.558H164.752z M246.853,370.747h-33.552c-4.396-7.564-8.339-15.968-11.766-25.083 c14.287-2.457,29.608-3.943,45.188-4.461v29.608h0.129V370.747z M246.853,319.289c-18.036,0.517-35.362,2.263-51.717,5.172 c-4.073-16.485-6.594-34.521-7.24-53.269h58.958V319.289L246.853,319.289z M246.853,249.406h-58.958 c0.711-18.941,3.297-36.913,7.37-53.269c16.226,2.909,33.616,4.655,51.523,5.172v48.032h0.065V249.406z M246.853,179.588 c-15.58-0.453-30.901-2.004-45.188-4.461c10.796-29.737,26.958-51.006,45.188-57.212V179.588z M302.19,370.747h-33.552v-29.608 c15.58,0.453,30.901,2.004,45.188,4.461C310.529,354.78,306.586,363.184,302.19,370.747z M268.638,319.289v-48.032h58.958 c-0.711,18.747-3.168,36.784-7.24,53.333C304,321.616,286.61,319.806,268.638,319.289z M313.762,175.063 c-14.287,2.457-29.608,3.943-45.188,4.461v-61.673C286.869,124.121,303.03,145.325,313.762,175.063z M313.051,127.03 c18.618,7.758,35.556,19.394,49.713,34.457c-8.275,3.491-17.455,6.465-27.345,9.05C329.535,153.6,321.842,138.925,313.051,127.03z M320.162,196.202c4.073,16.291,6.659,34.392,7.37,53.333h-58.958v-48.097C286.545,200.857,303.935,199.046,320.162,196.202z M358.497,370.747H326.82c3.168-6.465,5.947-13.382,8.469-20.558c12.606,3.232,24.048,7.176,33.875,11.895 C368.129,367.063,363.733,370.747,358.497,370.747z M369.422,338.36c-8.598-3.491-17.907-6.594-27.927-9.18 c4.461-18.101,7.111-37.624,7.887-57.923h20.04V338.36z M369.422,249.406h-20.04c-0.711-20.622-3.426-40.21-7.822-57.923 c9.956-2.651,19.265-5.624,27.798-9.115v67.038H369.422z M248.533,94.513c-83.006,4.461-151.79,72.857-156.638,155.798 c-2.651,44.412,12.8,87.725,41.891,120.372H32.743c-6.012,0-10.925-4.849-10.925-10.925v-186.44h26.117 c6.012,0,10.925-4.848,10.925-10.925c0-6.012-4.848-10.925-10.925-10.925H21.818v-23.596h53.915 c6.012,0,10.925-4.848,10.925-10.925c0-6.012-4.848-10.925-10.925-10.925H21.818V74.085V32.711c0-6.012,4.848-10.925,10.925-10.925 h327.111c6.012,0,10.925,4.848,10.925,10.925v41.374v64.646C338.069,108.283,294.756,92.057,248.533,94.513z"/> </g> </g>
</svg>