<!DOCTYPE svg PUBLIC "-//W3C//DTD SVG 1.1//EN" "http://www.w3.org/Graphics/SVG/1.1/DTD/svg11.dtd">
<!-- Uploaded to: SVG Repo, www.svgrepo.com, Transformed by: SVG Repo Mixer Tools -->
<svg height="800px" width="800px" version="1.1" id="Layer_1" xmlns="http://www.w3.org/2000/svg" xmlns:xlink="http://www.w3.org/1999/xlink" viewBox="0 0 392.663 392.663" xml:space="preserve" fill="#000000">
<g id="SVGRepo_bgCarrier" stroke-width="0"/>
<g id="SVGRepo_tracerCarrier" stroke-linecap="round" stroke-linejoin="round"/>
<g id="SVGRepo_iconCarrier"> <polyline style="fill:#FFFFFF;" points="21.883,91.345 21.883,319.871 370.844,319.871 370.844,91.345 "/> <polygon style="fill:#FFFFFF;" points="125.059,341.786 112.582,370.812 280.145,370.812 267.669,341.786 "/> <path style="fill:#d32f2f;" d="M196.687,193.939c-40.016,0-74.408-24.372-89.147-59.022H65.584v57.729h49.584 c6.012,0,10.925,4.848,10.925,10.925s-4.848,10.925-10.925,10.925H65.584v20.234h19.329c6.012,0,10.925,4.848,10.925,10.925 c0,6.012-4.848,10.925-10.925,10.925H65.584v19.717h261.754V134.723h-41.309C271.095,169.568,236.638,193.939,196.687,193.939z"/> <path style="fill:#a30027;" d="M381.77,69.495h-92.186C277.689,29.414,240.582,0,196.687,0s-81.067,29.35-92.962,69.495H10.958 c-6.012,0-10.925,4.848-10.925,10.925v250.44c0,6.012,4.848,10.925,10.925,10.925h90.376l-12.412,29.026H68.428 c-6.012,0-10.925,4.848-10.925,10.925c0,6.012,4.848,10.925,10.925,10.925h255.935c6.012,0,10.925-4.848,10.925-10.925 c0-6.012-4.848-10.925-10.925-10.925h-20.493l-12.477-29.026h90.311c6.012,0,10.925-4.848,10.925-10.925V80.42 C392.63,74.408,387.782,69.495,381.77,69.495z M196.687,21.851c41.438,0,75.119,33.681,75.119,75.119s-33.681,75.119-75.119,75.119 s-75.119-33.681-75.119-75.119C121.503,55.531,155.248,21.851,196.687,21.851z M107.41,134.917 c14.739,34.65,49.196,59.022,89.147,59.022c40.016,0,74.408-24.372,89.147-59.022h41.309v141.382H65.519V134.917H107.41z M112.582,370.812l12.412-29.026h142.675l12.412,29.026H112.582z M370.844,319.871H21.883V91.345h78.093 c-0.065,1.875-0.323,3.814-0.323,5.689c0,5.495,0.517,10.925,1.487,16.162H54.594c-6.012,0-10.925,4.848-10.925,10.925v163.232 c0,6.012,4.848,10.925,10.925,10.925h283.539c6.012,0,10.925-4.848,10.925-10.925V123.992c0-6.012-4.848-10.925-10.925-10.925 H292.17c0.84-5.236,1.487-10.602,1.487-16.162c0-1.939-0.129-3.814-0.323-5.689h77.511L370.844,319.871L370.844,319.871z"/> <path style="fill:#FFFFFF;" d="M121.503,97.034c0,41.438,33.681,75.119,75.119,75.119s75.119-33.681,75.119-75.119 s-33.681-75.119-75.119-75.119C155.248,21.851,121.503,55.531,121.503,97.034z"/> <path style="fill:#a30027;" d="M199.014,124.057h-23.79c-6.012,0-10.925,4.848-10.925,10.925c0,6.012,4.848,10.925,10.925,10.925 h10.537v3.943c0,6.012,4.848,10.925,10.925,10.925c6.077,0,10.925-4.848,10.925-10.925v-5.236 c12.347-3.685,21.398-15.127,21.398-28.638c0-16.485-13.446-29.931-29.996-29.931h-4.719c-4.461,0-8.145-3.62-8.145-8.145 s3.62-8.145,8.145-8.145h23.79c6.012,0,10.925-4.848,10.925-10.925c0-6.012-4.848-10.925-10.925-10.925h-10.537v-3.879 c0-6.012-4.848-10.925-10.925-10.925c-6.077,0-10.925,4.848-10.925,10.925v5.236c-12.347,3.685-21.398,15.127-21.398,28.638 c0,16.485,13.446,29.931,29.996,29.931h4.719c4.461,0,8.145,3.62,8.145,8.145C207.095,120.501,203.475,124.057,199.014,124.057z"/> </g>
</svg>