<!DOCTYPE svg PUBLIC "-//W3C//DTD SVG 1.1//EN" "http://www.w3.org/Graphics/SVG/1.1/DTD/svg11.dtd">
<!-- Uploaded to: SVG Repo, www.svgrepo.com, Transformed by: SVG Repo Mixer Tools -->
<svg height="800px" width="800px" version="1.1" id="Layer_1" xmlns="http://www.w3.org/2000/svg" xmlns:xlink="http://www.w3.org/1999/xlink" viewBox="0 0 392.598 392.598" xml:space="preserve" fill="#000000">
<g id="SVGRepo_bgCarrier" stroke-width="0"/>
<g id="SVGRepo_tracerCarrier" stroke-linecap="round" stroke-linejoin="round"/>
<g id="SVGRepo_iconCarrier"> <g> <path style="fill:#FFFFFF;" d="M185.341,369.325v-82.941c-21.786,0.711-42.731,3.491-62.061,8.145 C137.438,334.545,159.935,362.925,185.341,369.325z"/> <path style="fill:#FFFFFF;" d="M85.721,207.257H22.174c2.069,33.681,13.834,64.84,32.453,90.699 c12.283-7.176,26.117-13.317,41.115-18.23C89.923,257.616,86.432,233.18,85.721,207.257z"/> <path style="fill:#FFFFFF;" d="M185.341,207.257h-77.77c0.776,23.596,4.073,46.028,9.374,66.392 c21.398-5.236,44.477-8.404,68.461-9.115v-57.277H185.341z"/> <path style="fill:#FFFFFF;" d="M185.341,128.259c-23.984-0.711-47.063-3.879-68.461-9.115c-5.236,20.299-8.598,42.731-9.374,66.327 h77.834V128.259L185.341,128.259z"/> <path style="fill:#FFFFFF;" d="M123.216,98.263c19.394,4.655,40.339,7.499,62.125,8.21V23.337 C159.935,29.737,137.438,58.182,123.216,98.263z"/> <path style="fill:#FFFFFF;" d="M68.525,77.64c10.02,5.624,21.269,10.537,33.358,14.545c8.145-23.337,18.941-43.378,31.677-58.634 C108.671,43.184,86.432,58.376,68.525,77.64z"/> <path style="fill:#FFFFFF;" d="M133.624,359.176c-12.735-15.321-23.596-35.232-31.677-58.57 c-12.154,4.008-23.273,8.986-33.358,14.545C86.562,334.352,108.735,349.479,133.624,359.176z"/> <path style="fill:#FFFFFF;" d="M22.174,185.406h63.547c0.776-25.859,4.267-50.295,9.956-72.404 c-14.998-5.042-28.832-11.119-41.115-18.295C35.943,120.63,24.242,151.725,22.174,185.406z"/> </g> <path style="fill:#d32f2f;" d="M335.386,168.792c-3.62-18.489-10.796-35.685-21.269-51.394c-2.909-4.331-2.327-10.15,1.293-13.77 l17.455-17.455L306.36,59.669l-17.455,17.455c-3.685,3.685-9.438,4.267-13.77,1.293c-15.58-10.408-32.905-17.648-51.394-21.269 c-5.107-1.034-8.792-5.495-8.792-10.667V21.786h-7.822v85.01c44.606,5.43,79.257,43.442,79.257,89.471s-34.715,84.04-79.257,89.471 v85.01h7.822v-24.63c0-5.172,3.685-9.632,8.792-10.667c18.489-3.62,35.749-10.796,51.394-21.269 c4.331-2.909,10.149-2.327,13.77,1.293l17.455,17.455l26.505-26.505L315.41,288.97c-3.685-3.685-4.267-9.438-1.293-13.77 c10.537-15.58,17.648-32.905,21.269-51.394c1.034-5.107,5.495-8.792,10.667-8.792h24.63v-37.495h-24.63 C340.816,177.648,336.356,173.899,335.386,168.792z"/> <path style="fill:#d32f2f;" d="M185.923,51.782c-75.184,5.301-134.529,67.879-134.529,144.485 c0,76.477,59.345,139.184,134.529,144.485V51.782z"/> <path style="fill:#a30027;" d="M381.673,155.733H354.78c-3.879-15.127-9.826-29.414-17.778-42.861l19.006-19.006 c4.267-4.267,4.267-11.119,0-15.451l-41.891-41.891c-4.267-4.267-11.119-4.267-15.451,0l-18.941,19.071 c-13.382-7.952-27.733-13.899-42.861-17.778V10.925C236.865,4.913,232.016,0,225.939,0c0,0-29.285,0-29.608,0 C87.984,0.065,0,88.048,0,196.331s87.984,196.267,196.267,196.267c0.388,0,29.608,0,29.608,0c6.012,0,10.925-4.848,10.925-10.925 V354.78c15.127-3.879,29.414-9.826,42.861-17.778l19.006,19.006c4.267,4.267,11.119,4.267,15.451,0l41.891-41.891 c4.267-4.267,4.267-11.119,0-15.451l-19.006-18.941c7.952-13.446,13.899-27.733,17.778-42.861h26.893 c6.012,0,10.925-4.848,10.925-10.925v-59.281C392.533,160.711,387.685,155.733,381.673,155.733z M133.624,33.487 c-12.735,15.321-23.596,35.297-31.677,58.634C89.794,88.048,78.61,83.135,68.59,77.576C86.432,58.376,108.671,43.184,133.624,33.487 z M54.562,94.772c12.283,7.176,26.117,13.317,41.115,18.295c-5.689,22.109-9.18,46.416-9.956,72.404H22.174 C24.242,151.725,35.943,120.63,54.562,94.772z M54.626,297.956c-18.618-25.923-30.319-57.018-32.453-90.699h63.547 c0.776,25.988,4.267,50.36,9.956,72.469C80.679,284.638,66.844,290.844,54.626,297.956z M68.59,315.087 c10.02-5.56,21.269-10.537,33.358-14.545c8.145,23.337,18.877,43.249,31.677,58.57C108.735,349.479,86.562,334.352,68.59,315.087z M185.341,369.325c-25.406-6.4-47.838-34.844-62.061-74.861c19.329-4.655,40.339-7.434,62.061-8.145V369.325z M185.341,264.469 c-23.984,0.711-47.063,3.879-68.461,9.115c-5.236-20.299-8.598-42.796-9.374-66.392h77.834V264.469L185.341,264.469z M185.341,185.406h-77.77c0.776-23.596,4.073-45.964,9.374-66.327c21.398,5.236,44.477,8.404,68.461,9.115v57.212H185.341z M185.341,106.473c-21.786-0.711-42.731-3.491-62.125-8.21c14.222-40.081,36.719-68.525,62.125-74.925V106.473z M207.192,128.97 c32.517,5.236,57.471,33.358,57.471,67.362s-24.954,62.19-57.471,67.362V128.97z M370.747,215.014h-24.63 c-5.172,0-9.632,3.685-10.667,8.792c-3.62,18.489-10.796,35.685-21.269,51.394c-2.909,4.331-2.327,10.15,1.293,13.77l17.455,17.455 l-26.505,26.505l-17.455-17.455c-3.685-3.685-9.438-4.267-13.77-1.293c-15.58,10.537-32.905,17.648-51.394,21.269 c-5.107,1.034-8.792,5.495-8.792,10.667v24.63h-7.758v-85.01c44.606-5.43,79.257-43.442,79.257-89.471s-34.715-84.04-79.257-89.471 v-85.01h7.758v24.63c0,5.172,3.685,9.632,8.792,10.667c18.489,3.62,35.749,10.796,51.394,21.269 c4.331,2.909,10.15,2.327,13.77-1.293l17.455-17.455l26.505,26.505l-17.455,17.455c-3.685,3.685-4.267,9.438-1.293,13.77 c10.537,15.58,17.648,32.905,21.269,51.394c1.034,5.107,5.495,8.792,10.667,8.792h24.63V215.014z"/> </g>
</svg>