<!DOCTYPE svg PUBLIC "-//W3C//DTD SVG 1.1//EN" "http://www.w3.org/Graphics/SVG/1.1/DTD/svg11.dtd">
<!-- Uploaded to: SVG Repo, www.svgrepo.com, Transformed by: SVG Repo Mixer Tools -->
<svg height="800px" width="800px" version="1.1" id="Layer_1" xmlns="http://www.w3.org/2000/svg" xmlns:xlink="http://www.w3.org/1999/xlink" viewBox="0 0 392.647 392.647" xml:space="preserve" fill="#ffffff" stroke="#ffffff">
<g id="SVGRepo_bgCarrier" stroke-width="0"/>
<g id="SVGRepo_tracerCarrier" stroke-linecap="round" stroke-linejoin="round"/>
<g id="SVGRepo_iconCarrier"> <path style="fill:#FFFFFF;" d="M102.746,306.126c14.933,0,31.354-26.117,31.354-49.907c0-23.661-17.067-28.638-31.354-28.638 s-31.354,4.913-31.354,28.638C71.392,280.008,87.877,306.126,102.746,306.126z"/> <g> <path style="fill:#fffffffffff;" d="M180.515,370.707c3.491-18.36,4.461-38.853,0.323-44.154c-2.457-3.038-16.937-8.986-46.675-13.834 c-8.663,9.18-19.394,15.127-31.354,15.127s-22.691-5.947-31.418-15.127c-29.737,4.848-44.218,10.796-46.675,13.834 c-4.202,5.236-3.232,25.729,0.323,44.154H180.515z"/> <path style="fill:#fffffffffff;" d="M289.962,206.958c14.933,0,31.354-26.117,31.354-49.907c0-23.661-17.067-28.638-31.354-28.638 c-14.287,0-31.354,4.913-31.354,28.638C258.608,180.841,275.028,206.958,289.962,206.958z"/> </g> <g> <path style="fill:#ffffff;" d="M367.731,271.54c3.491-18.36,4.461-38.853,0.323-44.154c-2.457-3.038-16.937-8.986-46.675-13.834 c-8.663,9.18-19.394,15.127-31.418,15.127c-11.96,0-22.691-5.947-31.354-15.127c-29.737,4.848-44.218,10.796-46.675,13.834 c-4.202,5.236-3.232,25.729,0.323,44.154H367.731z"/> <path style="fill:#ffffff;" d="M32.863,125.439h101.689c6.012,0,10.925,4.848,10.925,10.925v12.347l27.152-21.01 c1.939-1.487,4.267-2.327,6.659-2.327h10.602c6.012,0,10.925-4.848,10.925-10.925V32.8c0-6.012-4.848-10.925-10.925-10.925H32.863 c-6.012,0-10.925,4.848-10.925,10.925v81.778C21.937,120.59,26.786,125.439,32.863,125.439z"/> </g> <g> <path style="fill:#a30027;" d="M147.416,293.067c5.43-11.442,8.404-24.372,8.404-36.784c0-31.16-20.428-50.489-53.139-50.489 s-53.139,19.329-53.139,50.489c0,12.412,3.103,25.341,8.404,36.784c-40.469,7.628-47.838,16.743-50.36,19.911 c-13.834,17.325-5.107,58.893-2.069,71.24c1.164,4.848,5.56,8.339,10.602,8.339h173.123c5.042,0,9.438-3.426,10.602-8.339 c3.038-12.283,11.83-53.85-2.069-71.24C195.255,309.81,187.95,300.695,147.416,293.067z M102.746,227.58 c14.287,0,31.354,4.913,31.354,28.638c0,23.79-16.356,49.907-31.354,49.907c-14.933,0-31.354-26.117-31.354-49.907 C71.392,232.558,88.459,227.58,102.746,227.58z M24.717,326.554c2.457-3.038,16.937-8.986,46.675-13.834 c8.663,9.18,19.394,15.127,31.418,15.127c11.96,0,22.691-5.947,31.354-15.127c29.737,4.848,44.218,10.796,46.675,13.834 c4.202,5.236,3.232,25.729-0.323,44.154H24.976C21.485,352.412,20.451,331.855,24.717,326.554z"/> <path style="fill:#a30027;" d="M385.057,213.81c-2.521-3.232-9.956-12.283-50.36-19.911c5.43-11.442,8.404-24.372,8.404-36.784 c0-31.16-20.428-50.489-53.139-50.489s-53.139,19.329-53.139,50.489c0,12.412,3.103,25.341,8.404,36.784 c-40.469,7.628-47.838,16.743-50.36,19.911c-13.834,17.325-5.107,58.893-2.069,71.24c1.164,4.848,5.56,8.339,10.602,8.339h173.188 c5.042,0,9.438-3.426,10.602-8.339C390.164,272.703,398.891,231.2,385.057,213.81z M289.962,128.477 c14.287,0,31.354,4.913,31.354,28.638c0,23.79-16.356,49.907-31.354,49.907c-14.933,0-31.354-26.117-31.354-49.907 C258.608,133.39,275.61,128.477,289.962,128.477z M211.869,227.515c2.457-3.038,16.937-8.986,46.675-13.834 c8.663,9.18,19.394,15.127,31.354,15.127s22.691-5.947,31.418-15.127c29.737,4.848,44.218,10.796,46.675,13.834 c4.202,5.236,3.232,25.729-0.323,44.154H212.127C208.636,253.245,207.731,232.752,211.869,227.515z"/> <path style="fill:#a30027;" d="M189.954,0.089H32.863C14.826,0.089,0.152,14.764,0.152,32.8v81.778 c0,18.101,14.675,32.711,32.711,32.711h90.764v23.725c-0.388,7.37,8.986,14.739,17.648,8.598l41.697-32.388h6.982 c18.036,0,32.711-14.675,32.711-32.711V32.8C222.6,14.764,207.925,0.089,189.954,0.089z M200.75,114.513 c0,6.012-4.848,10.925-10.925,10.925h-10.667c-2.392,0-4.784,0.776-6.659,2.327l-27.152,21.01v-12.347 c0-6.012-4.848-10.925-10.925-10.925H32.863c-6.012,0-10.925-4.848-10.925-10.925V32.8c0-6.012,4.848-10.925,10.925-10.925h157.026 c6.012,0,10.925,4.848,10.925,10.925v81.713H200.75z"/> <path style="fill:#a30027;" d="M86.131,59.823h-17.39c-6.012,0-10.925,4.848-10.925,10.925c0,6.077,4.848,10.925,10.925,10.925 h17.39c6.012,0,10.925-4.848,10.925-10.925C97.057,64.671,92.144,59.823,86.131,59.823z"/> <path style="fill:#a30027;" d="M154.075,59.823h-17.39c-6.012,0-10.925,4.848-10.925,10.925c0,6.012,4.848,10.925,10.925,10.925 h17.39c6.012,0,10.925-4.848,10.925-10.925C165,64.671,160.087,59.823,154.075,59.823z"/> </g> </g>
</svg>