<svg width="118" height="27" viewBox="0 0 118 27" fill="none" xmlns="http://www.w3.org/2000/svg">
<rect width="118" height="27" rx="4" fill="#CAD6FF"/>
<path d="M29.296 7.68H35.632V9.392H29.296V7.68ZM31.12 11.136H33.232V14.848H31.12V11.136ZM34.8 7.68H36.896V8.608C36.896 9.648 36.896 11.12 36.544 12.96L34.48 12.736C34.8 10.912 34.8 9.632 34.8 8.608V7.68ZM38.336 6.608H40.48V17.696H38.336V6.608ZM39.632 11.12H42.24V12.864H39.632V11.12ZM30.592 19.472H40.944V21.168H30.592V19.472ZM30.592 16.704H32.72V20H30.592V16.704ZM28.624 15.712L28.432 14.032C30.992 14.032 34.56 13.984 37.536 13.568L37.664 15.072C34.608 15.648 31.168 15.712 28.624 15.712ZM53.2468 6.592H55.3748V21.456H53.2468V6.592ZM43.8388 16.272H45.1508C47.7748 16.272 49.8708 16.176 52.2228 15.776L52.4308 17.488C50.0308 17.92 47.8548 18 45.1508 18H43.8388V16.272ZM43.8228 7.856H50.8148V13.584H45.9988V16.912H43.8388V11.904H48.6388V9.552H43.8228V7.856ZM60.7655 8.944H62.4455V10.608C62.4455 13.952 61.0375 17.36 58.3175 18.64L57.1175 16.96C59.5655 15.808 60.7655 13.04 60.7655 10.608V8.944ZM61.2135 8.944H62.8935V10.608C62.8935 12.848 64.0455 15.472 66.4775 16.592L65.3095 18.272C62.5895 17.008 61.2135 13.76 61.2135 10.608V8.944ZM57.6935 8.032H65.8215V9.776H57.6935V8.032ZM66.9095 6.608H69.0535V21.424H66.9095V6.608ZM68.5735 12.256H71.1975V14.016H68.5735V12.256ZM71.8523 18.064H85.2603V19.792H71.8523V18.064ZM77.4683 15.264H79.5963V18.768H77.4683V15.264ZM73.3563 7.568H83.7563V12.496H75.5003V14.992H73.3883V10.832H81.6443V9.248H73.3563V7.568ZM73.3883 14.144H84.0923V15.856H73.3883V14.144ZM87.611 7.968H97.003V9.648H87.611V7.968ZM86.251 17.76H99.643V19.488H86.251V17.76ZM95.883 7.968H97.995V9.728C97.995 11.808 97.995 13.824 97.467 16.864L95.339 16.688C95.883 13.84 95.883 11.728 95.883 9.728V7.968ZM110.81 6.624H112.954V17.264H110.81V6.624ZM103.082 19.472H113.322V21.168H103.082V19.472ZM103.082 16.192H105.21V20.16H103.082V16.192ZM104.89 7.552C107.162 7.552 108.906 9.12 108.906 11.312C108.906 13.488 107.162 15.072 104.89 15.072C102.618 15.072 100.858 13.488 100.858 11.312C100.858 9.12 102.618 7.552 104.89 7.552ZM104.89 9.392C103.786 9.392 102.938 10.096 102.938 11.312C102.938 12.512 103.786 13.216 104.89 13.216C105.978 13.216 106.826 12.512 106.826 11.312C106.826 10.096 105.978 9.392 104.89 9.392Z" fill="black"/>
<path d="M13.7076 4.13713C13.8708 4.3183 14.0702 4.46316 14.293 4.56232C14.5158 4.66147 14.7569 4.71271 15.0008 4.71271C15.2446 4.71271 15.4858 4.66147 15.7086 4.56232C15.9313 4.46316 16.1308 4.3183 16.294 4.13713L17.1354 3.2139C17.3766 2.94702 17.6944 2.76131 18.0453 2.68225C18.3962 2.6032 18.7629 2.63468 19.0952 2.77237C19.4275 2.91006 19.7091 3.14722 19.9012 3.45129C20.0933 3.75536 20.1867 4.11144 20.1684 4.47066L20.1052 5.71586C20.093 5.95877 20.1318 6.20155 20.2191 6.42855C20.3064 6.65555 20.4403 6.86174 20.6122 7.03385C20.7841 7.20595 20.9901 7.34015 21.2169 7.4278C21.4438 7.51545 21.6865 7.55461 21.9294 7.54275L23.1746 7.4796C23.5336 7.4619 23.8893 7.55566 24.1929 7.74802C24.4966 7.94038 24.7333 8.22193 24.8706 8.55409C25.008 8.88624 25.0392 9.25275 24.9601 9.60336C24.881 9.95398 24.6954 10.2716 24.4287 10.5126L23.502 11.3486C23.321 11.5121 23.1764 11.7117 23.0773 11.9345C22.9783 12.1573 22.9272 12.3985 22.9272 12.6423C22.9272 12.8861 22.9783 13.1273 23.0773 13.3501C23.1764 13.5729 23.321 13.7725 23.502 13.936L24.4287 14.772C24.6956 15.0132 24.8813 15.331 24.9604 15.6819C25.0394 16.0328 25.008 16.3996 24.8703 16.7318C24.7326 17.0641 24.4954 17.3457 24.1914 17.5378C23.8873 17.7299 23.5312 17.8233 23.172 17.805L21.9268 17.7418C21.6833 17.7293 21.44 17.768 21.2124 17.8555C20.9849 17.943 20.7783 18.0772 20.6059 18.2496C20.4335 18.422 20.2992 18.6286 20.2118 18.8562C20.1243 19.0837 20.0856 19.3271 20.0981 19.5705L20.1613 20.8157C20.1772 21.1731 20.0827 21.5268 19.8906 21.8286C19.6986 22.1305 19.4182 22.3659 19.0877 22.5029C18.7572 22.6398 18.3925 22.6718 18.0433 22.5943C17.694 22.5168 17.377 22.3337 17.1354 22.0698L16.2985 21.1439C16.1351 20.963 15.9356 20.8183 15.7128 20.7193C15.4901 20.6203 15.249 20.5692 15.0052 20.5692C14.7615 20.5692 14.5204 20.6203 14.2976 20.7193C14.0749 20.8183 13.8754 20.963 13.712 21.1439L12.8715 22.0698C12.6303 22.3349 12.3132 22.5192 11.9634 22.5975C11.6137 22.6759 11.2483 22.6444 10.917 22.5075C10.5858 22.3706 10.3048 22.1348 10.1125 21.8324C9.9201 21.5299 9.82569 21.1755 9.8421 20.8175L9.90614 19.5723C9.91867 19.3288 9.87994 19.0855 9.79247 18.8579C9.705 18.6304 9.57074 18.4238 9.39837 18.2514C9.226 18.079 9.01936 17.9448 8.79182 17.8573C8.56429 17.7698 8.32092 17.7311 8.07748 17.7436L6.83228 17.8068C6.4732 17.8255 6.11712 17.7326 5.81294 17.5409C5.50875 17.3492 5.27136 17.068 5.13336 16.736C4.99537 16.404 4.96353 16.0374 5.04222 15.6865C5.1209 15.3357 5.30626 15.0178 5.57285 14.7765L6.49874 13.9404C6.67969 13.777 6.82434 13.5774 6.92335 13.3545C7.02235 13.1317 7.0735 12.8906 7.0735 12.6467C7.0735 12.4029 7.02235 12.1618 6.92335 11.9389C6.82434 11.7161 6.67969 11.5165 6.49874 11.3531L5.57285 10.5126C5.30713 10.2715 5.12233 9.9543 5.04373 9.60427C4.96512 9.25424 4.99653 8.88847 5.13366 8.55696C5.2708 8.22546 5.50697 7.94439 5.8099 7.75219C6.11282 7.55999 6.46771 7.46603 6.82605 7.48316L8.07125 7.54631C8.31516 7.55913 8.55904 7.52051 8.78704 7.43294C9.01505 7.34538 9.22209 7.21083 9.39471 7.03804C9.56733 6.86525 9.70168 6.65808 9.78902 6.42999C9.87637 6.20189 9.91476 5.95798 9.9017 5.71408L9.8421 4.46799C9.8253 4.10979 9.91943 3.75512 10.1116 3.45239C10.3039 3.14966 10.5848 2.91361 10.9161 2.77645C11.2475 2.63928 11.613 2.60769 11.963 2.68598C12.3129 2.76427 12.6302 2.94863 12.8715 3.2139L13.7076 4.13713Z" stroke="#5D5A88" stroke-width="2" stroke-linecap="round" stroke-linejoin="round"/>
<path d="M15.0005 16.645C17.211 16.645 19.0029 14.853 19.0029 12.6426C19.0029 10.4321 17.211 8.64014 15.0005 8.64014C12.79 8.64014 10.998 10.4321 10.998 12.6426C10.998 14.853 12.79 16.645 15.0005 16.645Z" stroke="#5D5A88" stroke-width="2" stroke-linecap="round" stroke-linejoin="round"/>
</svg>
