<svg xmlns="http://www.w3.org/2000/svg" width="375.02054pt" height="375pt" viewBox="0 0 375.02054 374.99999"><path d="M187.515 0C84.113 0 0 84.126 0 187.508 0 290.855 84.113 375 187.515 375c103.416 0 187.506-84.145 187.506-187.492C375.02 84.126 290.93 0 187.515 0Zm0 7.868c99.075 0 179.625 80.572 179.625 179.64 0 99.026-80.55 179.611-179.625 179.611-99.053 0-179.66-80.585-179.66-179.611 0-99.068 80.607-179.64 179.66-179.64Zm-17.25 11.402v1.677c1.39.11 2.273.191 2.534.246l.644.35.3.644c.07.294.111.946.111 1.939l.108 5.785v6.423c0 1.78-.046 3.226-.108 4.342a43.805 43.805 0 0 1-.262 3.664l-.26.74-.382.252c-.212.075-1.118.11-2.686.233v1.718c2.233-.096 3.965-.149 5.28-.149.315 0 1.76 0 4.314.054v-1.623l-.403.021-1.883-.177-.706-.234-.26-.357c-.109-.342-.198-1.252-.246-2.807-.068-2.218-.102-4.39-.102-6.491v-9.93c7.923 9.62 14.009 16.852 18.33 21.693 1.13.117 2.288.308 3.418.493l.246-.185c-.192-1.89-.246-7.271-.246-16.139 0-1.15.006-2.889.054-5.251.082-2.404.22-3.946.405-4.597l.231-.293c.302-.171 1.276-.316 2.912-.364V19.27c-2.109.068-3.8.103-5.115.103-1.37 0-2.837-.034-4.494-.103v1.677c1.774.034 2.849.192 3.123.398l.39.965c.11 1.274.206 5.485.206 12.655v4.622c-1.85-1.87-4.157-4.54-6.985-7.95-3.924-4.636-7.21-8.731-9.969-12.367l-1.849.07-2.912.033c-.794 0-2.04-.035-3.739-.103zm-7.155 1.096-4.355 1.13-.522.17c-.431.089-1.884.371-4.28.816l.364 1.644c1.48-.33 2.45-.412 2.964-.255l.554.35c.233.315.564 1.295.981 2.924.192.754.692 2.89 1.5 6.328l.909 4.04c.685 2.773.905 4.746.645 5.862-.22 1.102-.796 2.068-1.754 2.979-.911.835-2.313 1.54-4.135 1.951-1.616.363-2.93.432-4.088.185-1.13-.185-2.034-.63-2.691-1.302-.699-.602-1.234-1.553-1.63-2.765-.213-.541-.577-2.022-1.118-4.412l-.575-2.293-1.068-4.574c-.637-2.787-.971-4.582-.971-5.431l.218-.801c.343-.343 1.212-.645 2.63-.994l-.411-1.649-.719.198-2.622.665-2.67.704-6.425 1.35.41 1.624 2.625-.345.58.427.521 1.17c.452 1.5.856 3.095 1.295 4.985l1.163 5 .891 3.76c.48 2.108.788 3.326.986 3.813l1.307 2.226c.616.698 1.398 1.272 2.35 1.751.945.514 2.115.775 3.464.891a18.9 18.9 0 0 0 5.773-.526c1.705-.397 3.158-.918 4.39-1.59 1.213-.691 2.212-1.486 2.993-2.39.76-.966 1.294-1.959 1.602-2.938.335-1.048.424-2.183.3-3.498-.123-1.287-.3-2.548-.608-3.726l-1.076-4.663c-.322-1.315-.69-3.212-1.156-5.575-.452-2.383-.691-3.745-.637-4.08l.231-.686c.274-.28 1.028-.56 2.24-.814zm45.126.58-.239 1.693c1.383.267 2.198.439 2.417.521l.431.288.103.423c.013.398-.063 1.438-.213 3.054-.083.774-.32 2.41-.704 4.95l-1.191 8.013a48.075 48.075 0 0 1-.81 4.219c-.246 1.068-.362 2.197-.43 2.334l-.193.288-.617.138c-.205 0-1.011-.056-2.285-.22l-.282 1.679c1.609.171 3.466.416 5.52.724 2.384.363 4.602.707 6.677 1.125l.267-1.68c-1.267-.226-2.034-.39-2.288-.513l-.521-.26-.21-.439c-.055-.431-.002-1.875.21-3.176l.467-3.534 1.135-7.732c.062-.205.324-1.95.858-5.08.144-.937.294-1.54.35-1.876l.374-1.192.242-.267.547-.164c.267-.041 1.02.02 2.3.205l.296-1.692c-2.123-.26-4.329-.554-6.664-.876-2.075-.335-3.924-.624-5.547-.952zm18.523 3.18-.514 1.574c1.157.424 1.863.807 2.165 1.122.205.205.403.89.567 1.972.15 1.116.446 4.5.891 10.074l.547 7.231c.199 2.637.413 5.464.59 8.395l2.841.953c1.452-1.89 4.062-5.06 7.876-9.422l4.507-5.144 2.342-2.657c1.896-2.219 3.081-3.347 3.512-3.539.247-.062.978 0 2.183.362l.55-1.656-4.047-1.212-4.664-1.66-.534 1.598 1.985.814.645.288.19.336-.062.493-.177.473c-.294.445-.978 1.34-2.006 2.634-1.506 1.842-2.288 2.876-2.472 3.102l-7.54 8.829-.896-12.999v-.39c0-.11-.05-.82-.139-2.1-.178-2.254-.205-3.597-.061-3.953l.308-.41.657-.075c.534.048 1.308.231 2.301.56l.563-1.616-6.718-2.074c-.644-.192-2.432-.849-5.39-1.903zm33.945 12.038-.863 1.48c1.294.855 2.047 1.39 2.252 1.704l.124.445c-.02.3-.424 1.129-1.102 2.437-1.082 1.917-1.705 3.068-1.89 3.335l-4.41 7.622c-.52.876-1.382 2.26-2.588 4.15-.636 1-1.165 1.76-1.494 2.185l-2.219.046-.534.9c3.554 1.944 5.439 3.025 5.685 3.196 1.034.555 2.89 1.638 5.506 3.233l2.717 1.67c1.335.773 2.37 1.302 3.164 1.617l.308-.07c.876-1.478 2.048-3.218 3.603-5.3l-1.377-.821c-1.13 1.404-1.925 2.3-2.452 2.725l-.403.143c-.302.034-1.007-.197-2.075-.744a59.171 59.171 0 0 1-3.485-1.836c-1.24-.726-2.295-1.356-3.15-1.973l1.142-2.108 4.145-7.19c.746.37 1.676.882 2.786 1.484 1.184.706 2.177 1.37 2.868 1.918l.509.843c0 .424-.384 1.322-1.192 2.596l1.459.842 2.095-3.78 2.24-3.677-1.398-.776c-.575.96-1.103 1.68-1.507 2.008l-.403.198-1.158-.48c-1.623-.883-2.555-1.423-2.843-1.587l-2.362-1.417 2.028-3.5c1.116-1.973 2.178-3.576 3.061-4.713 1.062.534 2.143 1.027 3.164 1.664 1.04.617 2.123 1.288 3.143 2.096l1.225 1.047v.452c-.13.357-.554 1.193-1.287 2.535l1.315.76c.945-1.39 1.478-2.184 1.587-2.3l1.741-2.273v-.303l-.529-.424c-1.184-.78-1.97-1.267-2.409-1.48l-3.471-1.938a264.26 264.26 0 0 1-5.177-2.938l-2.24-1.279zm-155.699 6.197c-1.17.13-2.717.61-4.553 1.26a30.472 30.472 0 0 0-5.608 2.815 22.843 22.843 0 0 0-3.993 3.033c-1.157 1.075-2.081 2.252-2.89 3.628-.793 1.329-1.322 2.8-1.65 4.335a11.962 11.962 0 0 0-.012 4.786c.295 1.637.986 3.322 2.088 5.062 1.294 2.075 2.869 3.732 4.717 4.91 1.185.794 2.57 1.329 4.096 1.671 1.582.37 3.212.411 4.951.185 2.465-.39 4.937-1.323 7.43-2.953 1.567-.952 2.992-2.075 4.334-3.328 1.342-1.267 2.823-2.95 4.432-5.038l-1.795-2.486c-.342-.555-.855-1.494-1.656-2.83l-.398-1.012.937-1.355-.698-1.097-4.985 3.233-5.02 3.061.822 1.315c1.814-.973 2.925-1.528 3.384-1.61h.642c.199.116.645.725 1.302 1.8l.966 1.556.999 1.751-1.67 2.07-2.008 1.582c-2.56 1.602-5.332 1.964-8.345 1.163-2.972-.849-5.492-2.91-7.56-6.204-1.89-3.075-2.55-5.93-1.967-8.723.595-2.773 2.274-5.042 5.082-6.795 1.198-.746 2.334-1.267 3.464-1.561a9.812 9.812 0 0 1 3.225-.452l1.433.275.945 1.158 1.081 1.52 1.322-.817c-1.321-2.636-2.179-4.54-2.542-5.69zm180.713 8.743-.986 1.228c1.137 1.137 1.788 1.86 1.96 2.162v.447c-.09.308-.687 1.108-1.68 2.396l-2.545 3.246-4.622 5.6-3.788 4.343-1.615 1.574-.447.357-.41-.083c-.24-.068-.994-.589-2.178-1.5l-1.081 1.315a136.124 136.124 0 0 1 4.416 3.513c1.774 1.452 3.487 2.939 5.185 4.384l1.074-1.302c-.96-.822-1.485-1.335-1.67-1.574l-.328-.514-.015-.344.755-1.233c.226-.328 1.143-1.498 2.814-3.64 1.383-1.692 2.67-3.31 3.903-4.816.815-.965 2.43-2.806 4.792-5.62 1.068-1.24 1.802-2.01 2.103-2.42l1.533 1.104c1.116.863 1.803 1.56 2.09 2.121.46.747.643 1.65.61 2.63-.062.938-.508 1.946-1.262 2.822-.746.883-1.643 1.548-2.67 1.931-1.048.459-2.007.534-2.815.288-.863-.178-1.91-.814-3.04-1.862l-.601.342.136 1.787c-.096 1.404-.302 3.266-.604 5.526l-1.196 8-.337 1.15 2.445 1.923c.726.568 1.801 1.534 3.349 2.814l1.014-1.26-.883-.876-.18-.788c-.014-.336.048-1.266.103-2.93 0-.096.077-.864.241-2.309l.56-5.477.04-.424.137-1.323.295-2.095c2.061.705 3.882.884 5.416.5 1.595-.355 2.864-1.15 3.857-2.39.883-1.027 1.307-2.096 1.369-3.274.054-1.199-.254-2.225-.843-3.053-.595-.904-1.698-1.992-3.266-3.3-.822-.678-1.877-1.48-3.15-2.465-.816-.562-1.74-1.324-2.774-2.193-1.253-1.014-2.218-1.8-2.848-2.396-1.356-1.185-2.123-1.85-2.363-2.042zm-97.75 5.87c-63.787 0-118.692 47.05-128.538 109.744-1.273 3.5-5.389 17.034 1.14 31.205 0 0-6.185-3.225-8.903-3.533 0 0-1.861 11.36 5.13 19.475 0 0-5.664-1.055-11.881 2.424 0 0 6.477 13.771 21.07 18.366 0 0 1.07 2.677 2.151 4.594 0 0-9.703-1.637-19.167 2.445 0 0 7.826 8.635 10.811 10.004 0 0 7.275 4.567 11.068 5.128l-2.994 1.043s13.532 18.098 25.687 20.269c0 0-8.609 2.368-11.882 6.484 0 0 15.402 14.299 35.65 9.991 0 0-4.354 4.588-6.491 9.196 0 0 13.484 3.767 27.002-1.13l-1.371 3.295s8.91 1.836 21.894-6.772l5.387 3.8s-15.645 2.67-25.91 6.457l10.798 7.842s1.096-1.13 8.369-4.56c0 0 20.282 4.127 30.972 3.744 10.71.383 30.966-3.744 30.966-3.744 7.314 3.43 8.382 4.56 8.382 4.56l10.77-7.842c-10.238-3.787-25.898-6.456-25.898-6.456l5.39-3.8c12.97 8.607 21.88 6.771 21.88 6.771l-1.372-3.295c13.545 4.897 27.035 1.13 27.035 1.13-2.15-4.608-6.497-9.196-6.497-9.196 20.256 4.308 35.664-9.991 35.664-9.991-3.308-4.116-11.895-6.484-11.895-6.484 12.148-2.171 25.684-20.269 25.684-20.269l-2.991-1.043c3.787-.561 11.093-5.128 11.093-5.128 2.952-1.37 10.778-10.004 10.778-10.004-9.423-4.082-19.152-2.445-19.152-2.445 1.069-1.917 2.15-4.594 2.15-4.594 14.572-4.595 21.057-18.366 21.057-18.366-6.239-3.479-11.882-2.424-11.882-2.424 7.019-8.115 5.13-19.475 5.13-19.475-2.697.308-8.923 3.533-8.923 3.533 6.94-15.051 1.942-29.303 1.03-31.65-10.045-62.505-64.799-109.298-128.392-109.298ZM74.464 61.043a178.4 178.4 0 0 1-3.233 3.945c-.938 1-1.937 2.135-3.095 3.279l1.254 1.089c1.219-1.288 2-2.014 2.383-2.075l.945.377c1.047.706 4.286 3.431 9.688 8.156l3.465 3.046c-2.657.15-6.175.152-10.565.036-6.101-.137-11.402-.365-15.888-.694l-1.183 1.454-1.878 2.198c-.486.63-1.377 1.52-2.575 2.732l1.302 1.122c.986-.993 1.615-1.58 1.861-1.738l.673-.262.67.205 1.5 1.15 4.445 3.776 4.82 4.257c1.35 1.158 2.424 2.09 3.205 2.892 1.383 1.37 2.274 2.272 2.576 2.634l.395.686-.061.46c-.103.198-.636.937-1.616 2.15l1.282 1.15c1.417-1.712 2.545-3.055 3.395-4.076.219-.212 1.185-1.292 2.863-3.21L79.88 94.74l-.247.303-1.369 1.327-.59.362-.465-.046c-.35-.137-1.11-.7-2.308-1.68-1.72-1.444-3.376-2.82-4.923-4.17l-7.486-6.594c12.456.431 21.928.63 28.378.542.89-.774 1.748-1.5 2.638-2.219l.033-.342c-1.534-1.116-5.629-4.561-12.285-10.423-.849-.732-2.164-1.93-3.903-3.533-1.767-1.637-2.82-2.745-3.177-3.32l-.082-.37c.041-.356.615-1.139 1.636-2.42zm113.502 3.025c60.932 0 113.297 45.437 121.761 105.753l.052-.006a26.645 26.645 0 0 0-4.304 4.643l-2.835 4.766c-5.06 10.552-3.788 22.215-3.788 22.215-10.792-9.738-27.803-1.85-27.803-1.85.534 1.85 6.212 6.164 6.212 6.164.26 20.454 12.416 24.596 12.416 24.596-4.307 3.225-5.398 6.758-5.398 6.758-6.231-7.86-19.989-6.204-19.989-6.204 0 14.278 15.128 21.312 15.128 21.312-1.37 6.197-.547 9.216-.547 9.216-5.115 2.41-10.78 9.45-10.78 9.45 1.602-15.175-3.8-20.29-3.8-20.29-9.177 5.424-12.943 15.668-12.943 15.668-15.414 1.609-23.79 12.69-23.79 12.69l1.084-4.876c-28.63 6.218-28.37 26.44-28.37 26.44l-1.323-.507c-1.52-9.203-10.073-8.992-10.99-8.903-.904-.089-9.429-.3-10.983 8.903l-1.356.506s.26-20.221-28.35-26.44l1.068 4.877s-8.369-11.081-23.756-12.69c0 0-3.78-10.244-12.963-15.667 0 0-5.395 5.114-3.772 20.289 0 0-5.67-7.04-10.785-9.45 0 0 .786-3.02-.563-9.216 0 0 15.12-7.034 15.12-21.312 0 0-13.772-1.657-19.976 6.204 0 0-1.1-3.533-5.408-6.758 0 0 12.154-4.142 12.421-24.596 0 0 5.657-4.314 6.225-6.163 0 0-17.045-7.889-27.803 1.849 0 0 2.295-20.693-11.152-31.817l.251.036C74.67 109.431 127.036 64.07 187.968 64.07Zm-.439 9.17v.116l-5.087 5.287-.275 9.478c-12.908 2.28-43.84 11.813-32.047 50.845 0 0-45.936 21.042-43.314 59.417 0 0-2.621 41.361 41.67 43.635 0 0 34.766 1.472 27.582-29.357h-14.763s10.156 15.9-7.909 18.51c0 0-21.023 3.617-19.68-29.855 0 0 2.294-38.691 31.829-61.659 0 0-9.863-11.176-4.597-24.618 0 0 4.329-15.106 21.003-18.913l-1.479 52.907 7.067 4.306v.124l.062-.083.103.083v-.124l7.025-4.306-1.466-52.846c16.53 3.842 20.847 18.852 20.847 18.852 5.252 13.442-4.617 24.618-4.617 24.618 29.548 22.968 31.857 61.659 31.857 61.659 1.322 33.472-19.709 29.855-19.709 29.855-18.037-2.61-7.888-18.51-7.888-18.51h-14.763c-7.211 30.829 27.59 29.357 27.59 29.357 44.284-2.274 41.695-43.635 41.695-43.635 2.588-38.375-43.347-59.417-43.347-59.417 11.758-38.854-18.86-48.49-31.89-50.79l-.288-9.533-5.046-5.287v-.116l-.103.028zm123.26 3.857a7.874 7.874 0 0 0-1.958.19c-1.418.24-2.63.802-3.814 1.726l-2.041 2.17a6.485 6.485 0 0 0-.904 2.686c-.076.931.097 1.959.488 3.061.28.733.938 2.198 2.013 4.417.705 1.575 1.123 2.691 1.253 3.43l-.262 1.973-1.381 1.684-2.527 1.143c-.89.069-1.78-.124-2.753-.644-.945-.5-1.794-1.218-2.568-2.224-.87-1.15-1.433-2.384-1.659-3.685-.253-1.397-.23-2.493.139-3.39 1.013-.98 1.895-1.752 2.655-2.334l-1.027-1.31c-2.404 1.89-4.367 3.095-5.798 3.677.328 1.678.766 3.103 1.307 4.26a18.634 18.634 0 0 0 2.26 3.706c1.342 1.753 2.753 3.108 4.218 3.937.925.534 1.993.945 3.185 1.191 1.191.26 2.355.31 3.402.172 1.466-.232 2.856-.89 4.17-1.897l1.85-1.903.924-1.918.095-2.088c-.069-.726-.334-1.624-.745-2.617-.192-.418-.63-1.177-1.273-2.437-.624-1.185-1.11-2.192-1.439-2.863-.41-.98-.652-1.752-.713-2.334l.303-1.726 1.41-1.643c.972-.72 2.095-.973 3.43-.781 1.308.26 2.487 1.096 3.603 2.527.719.972 1.218 1.977 1.512 3.066.26 1.068.275 1.94.07 2.604-.445.513-1.274 1.19-2.424 2.17l.958 1.281c1.102-.794 2.027-1.385 2.719-1.844l2.26-1.196.26-.411c-.213-1.041-.611-2.158-1.22-3.357-.596-1.212-1.328-2.315-2.17-3.438a17.038 17.038 0 0 0-2.761-2.897c-.986-.828-2.087-1.389-3.23-1.78a5.883 5.883 0 0 0-1.816-.354zm16.998 17.693-1.48.953c.693 1.212 1.102 1.957 1.136 2.142l.07.534-.214.365c-.301.28-1.128.86-2.49 1.792-.576.431-2.022 1.316-4.2 2.637l-6.902 4.307c-1.15.698-2.375 1.439-3.731 2.144-.945.507-1.898 1.124-2.062 1.2l-.35.033-.464-.404c-.158-.157-.617-.78-1.384-1.87l-1.43.856a114.925 114.925 0 0 1 3.04 4.65 283.57 283.57 0 0 1 3.472 5.848l1.45-.945c-.636-1.075-1.027-1.725-1.109-2.006l-.103-.603.198-.452c.288-.315 1.397-1.185 2.506-1.89l3-1.918 6.663-4.13c.206-.102 1.664-.985 4.397-2.622l1.623-.945 1.184-.534.398.049.472.288c.164.198.61.82 1.356 1.943l1.438-.932a338.996 338.996 0 0 1-3.664-5.634 140.982 140.982 0 0 1-2.82-4.856zm-274.296.555c-1.157-.048-2.46.097-3.87.521-1.424.404-2.74 1.088-3.972 2.019-1.582 1.294-3.048 2.932-4.356 4.946-1.294 2.013-2.217 4.06-2.737 6.155-.404 1.657-.44 3.35-.11 5.164a12.471 12.471 0 0 0 2.136 5.136c1.123 1.602 2.663 3.006 4.697 4.294 2.609 1.718 5.144 2.627 7.555 2.737 2.396.096 4.629-.41 6.697-1.615 2.033-1.199 3.896-3.054 5.464-5.609 1.514-2.253 2.436-4.485 2.86-6.8.282-1.65.235-3.334-.127-5.046-.363-1.677-1.02-3.204-2.014-4.56-1.335-1.89-3.02-3.479-5.094-4.848-1.22-.788-2.454-1.385-3.611-1.775a11.8 11.8 0 0 0-3.518-.719zm-4.165 5.231c1.328-.013 2.713.179 4.227.645 1.506.513 3.047 1.293 4.56 2.252 2.287 1.527 3.985 3.033 5.17 4.642 1.17 1.63 1.712 3.219 1.712 4.767-.048 1.533-.534 2.986-1.438 4.404-.958 1.444-2.13 2.58-3.54 3.217-1.432.658-3.219.816-5.355.419-2.137-.356-4.5-1.397-7.075-3.02-1.787-1.199-3.267-2.513-4.404-3.986-1.157-1.451-1.745-3.013-1.78-4.601 0-1.664.486-3.28 1.513-4.849.925-1.444 1.892-2.417 2.912-2.958 1.027-.555 2.21-.877 3.498-.932zm287.731 9.383-1.669.904c-.315.144-1.698.788-4.13 1.87l.622 1.52c1.062-.438 2.041-.769 2.98-.96l.726-.055.444.65c.507.938 1.036 2.082 1.597 3.37l1.13 2.608c-.335.185-1.987.926-4.946 2.152l-10.88 4.684c-2.616 1.137-4.211 1.753-4.787 1.87l-.945-.304c-.273-.191-.766-.99-1.41-2.429l-1.507.65c1.075 2.15 1.98 4.15 2.72 5.855.719 1.595 1.492 3.609 2.396 6.019l1.486-.657c-.568-1.466-.835-2.391-.821-2.74l.444-.827c.5-.377 2.041-1.104 4.65-2.234l10.873-4.656c2.89-1.26 4.549-1.952 5.008-2.103l1.101 2.583a43.628 43.628 0 0 1 1.39 3.629l.118.65-.653.582c-.835.466-1.677.967-2.622 1.426l.65 1.471c2.568-1.034 3.924-1.57 4.006-1.63l2.021-.617.11-.3-.857-1.595c-.473-1-1.356-3.076-2.67-6.096l-3.15-7.334a252.691 252.691 0 0 1-2.541-6.025l-.65-1.856zm-305.48 13.215c-.425 1.493-1.014 3.24-1.726 5.287a166.67 166.67 0 0 1-2.684 7.21l1.644.61.952-2.52.473-.65.416-.123c.246-.048 1.042.177 2.337.568 1.328.438 2.738.924 4.327 1.458l14.598 5.164c.302.083 1.713.636 4.322 1.657 1.308.486 2.136.875 2.499 1.101l.719.925-.103 1.179-.663 1.096-1.582 1.13.062.514c1.438.5 2.553.91 3.403 1.294l.773-1.405c.26-.67.364-1.444.282-2.375-.034-.897-.253-1.876-.555-2.917-.383-1.075-.8-2.034-1.314-2.856-.76-1.198-1.665-2.232-2.74-3-1.055-.787-2.595-1.507-4.594-2.246l-8-2.732-6.738-2.396c-1.835-.658-3.231-1.2-4.224-1.66l-.842-.6-.11-.842c.047-.267.273-1.035.698-2.288zm291.033 17.962-1.569.404 1.158 4.383.966 4.437 1.602-.37c-.335-1.547-.46-2.485-.336-2.834l.603-.48c.425-.11 1.573-.067 3.498.2l2.521.28 2.368 9.868-3.834 2.676-1.45.776-.625-.152c-.144-.157-.445-1.055-.904-2.547l-1.574.382 1.726 6.685 1.191 5.374 1.567-.375-.095-.85-.124-1.183.124-.427.444-.485 1.556-1.179 2.355-1.849 17.942-13.353-.624-2.766-4.794-.624-13.543-2.095c-2.596-.363-4.308-.6-5.157-.745-1.876-.322-2.958-.514-3.246-.603l-.706-.275-.37-.472c-.116-.158-.348-.766-.67-1.8zM25.45 142.51l-.296.061-.254.588c-.425 1.384-.601 2.33-.725 2.802l-.796 3.875c-.472 2.137-.895 4.056-1.299 5.809l-.596 2.511-1.15 4.412 1.648.334c.432-1.48.742-2.314.96-2.643l.376-.213c.322-.082 1.226.063 2.678.337 2.144.451 3.375.726 3.71.767l8.567 2.014c1.02.24 2.597.696 4.733 1.278 1.212.315 2.048.584 2.568.796l.624 2.116 1.06.247c.822-3.944 1.302-6.11 1.377-6.425.233-1.11.768-3.197 1.528-6.196l.76-3.061c.342-1.493.555-2.663.657-3.506l-.2-.303c-1.623-.37-3.663-.984-6.101-1.833l-.383 1.553c1.664.651 2.76 1.13 3.315 1.52l.273.301c.116.336.077 1.042-.108 2.268-.178 1.184-.454 2.443-.735 3.834a60.103 60.103 0 0 1-.965 3.636c-.671-.158-1.444-.273-2.355-.506l-8.066-1.862c.13-.835.306-1.863.58-3.09.336-1.376.665-2.45 1.015-3.32l.65-.706c.403-.11 1.328 0 2.793.342l.37-1.677-4.17-.855-4.163-1.055-.382 1.56c1.136.302 1.923.549 2.354.843l.321.37-.115 1.225a135.923 135.923 0 0 0-.637 3.163c-.253.973-.5 1.864-.773 2.658l-3.878-.875c-2.239-.528-4.012-1.042-5.415-1.528.191-1.199.405-2.383.665-3.493a34.59 34.59 0 0 1 1.068-3.656l.69-1.438.399-.185c.356 0 1.307.185 2.807.48l.336-1.466c-1.589-.493-2.507-.796-2.678-.83zm308.02 4.992 10.813 1.561-8.895 6.443c-.322-1.116-.659-2.45-1.022-3.888-.342-1.54-.677-2.904-.896-4.116zm-165.696 6.481c-4.628-.034-9.899 1.022-15.62 4.009l-13.49 45.663s22.651-12.512 44.646 2.622h.02c.939.61 2.46 1.027 4.2 1.027 1.704 0 3.225-.418 4.149-1.027h.103c22.002-15.134 44.62-2.622 44.62-2.622l-13.463-45.663c-20.345-10.621-34.95 3.164-35.41 3.595-.29-.31-7.927-7.517-19.755-7.604zm.634 2.984c5.247.175 11.749 1.651 19.121 5.935v.04h.011v-.04c19.688-11.422 33.111-2.897 33.111-2.897l9.853 37.376c-22.09-7.108-42.518 6.272-42.976 6.567-.404-.295-20.893-13.675-42.936-6.567l9.812-37.376s5.259-3.329 14.003-3.038zm29.804 8.03-.152 1.392 1.13.164.329.198.13.275.05.724c0 .329-.048 1.2-.082 2.535l-.16 3.156-.37 5.924c-.109 2.212-.285 4.21-.415 5.99l-.206 1.241-.151.206-1.397.184-.095 1.5c.842-.02 1.758 0 2.675.054.863.075 2.15.158 3.822.336l.09-1.5-1.349-.197-.316-.247-.095-.267c-.04-.26-.04-.897 0-1.856.041-1.671.095-3.308.219-4.91l.377-6.327.231-3.316c.062-1.308.185-2.32.247-3.032l1.24-.157 1.76 1.266c.39.787.542 1.952.425 3.513-.068 1.479-.37 2.568-.821 3.307l-1.639 1.076-.341-.118-.383-.185-.241.337.275 1.212.595.226.617.082 2.444-.883c.754-.644 1.362-1.52 1.76-2.581.424-1.11.671-2.26.726-3.5.048-1.226-.021-2.35-.357-3.13l-1.191-1.69-2.04-.624-4.444-.11zm-25.844.028c-.924 0-1.725.13-2.519.403l-2.193 1.315c-.678.61-1.315 1.413-1.89 2.378-.52.986-.98 2.128-1.274 3.436-.308 1.301-.452 2.85-.452 4.61 0 2.081.22 3.998.707 5.703a11.612 11.612 0 0 0 1.286 3.076c.596.952 1.254 1.717 2.062 2.347 1.157.822 2.465 1.29 3.965 1.29.918 0 1.828-.173 2.753-.468.897-.377 1.985-.862 3.238-1.636l-.103-2.65c0-.534.001-1.473.057-2.78l.082-.884.773-.596v-1.068l-3 .036-2.958-.036v1.343c1.014.103 1.65.177 1.89.32l.26.304c.048.171.097.834.097 1.915l-.049 1.528c-.013.911-.028 1.48-.048 1.754l-1.197.683-1.315.242c-1.547 0-2.83-.96-3.877-2.933-1.034-1.93-1.574-4.574-1.574-7.91 0-3.019.52-5.387 1.512-7.153.993-1.747 2.308-2.617 3.965-2.617l1.905.431 1.492 1.123.535.85.09 1.28.06 1.603h.794c.13-2.513.281-4.268.452-5.274l-.095-.288c-.554-.41-1.316-.766-2.295-1.184-.952-.328-2.006-.493-3.136-.493zm14.545.316-.87 3.78-2.61 10.847c-.493 2.068-.834 3.416-.957 4.101-.411 1.513-.645 2.357-.727 2.596l-.206.514-.292.198-.92.213v1.376l2.268-.09 2.288.09v-1.376l-1.413-.324-.148-.547c0-.417.15-1.363.472-2.896l.432-2.075h5.115l.883 3.746.198 1.34-.157.514-1.335.242v1.376l3.485-.09 2.74.09v-1.376l-.419-.11-.596-.132-.205-.17-.164-.459-.432-1.533-.603-2.288-4.417-17.557zm24.426.519-.226 1.433 1.364.506.144.28c.006.253-.043 1.02-.221 2.267-.233 1.917-.396 2.993-.457 3.254l-1.09 7.483c-.136.89-.35 2.274-.693 4.178-.184 1.02-.308 1.788-.43 2.247l-1.103.821-.151.897c2.054.232 3.164.362 3.315.362.61.089 1.672.309 3.233.562l1.582.267 1.78.172.164-.234c.212-1.403.547-3.217 1.02-5.415l-.828-.119c-.335 1.48-.595 2.493-.821 3l-.139.287-1.143.185-2.013-.185-1.87-.37.28-2.067 1.023-7.025 1.587.102 1.72.44.37.498c.048.294-.001 1.103-.2 2.411l.837.123.498-3.649.575-3.672-.806-.115c-.137 1-.316 1.678-.419 2.116l-.213.328h-.642c-.945-.061-1.488-.177-1.638-.197l-1.382-.254.478-3.382c.301-1.986.548-3.562.863-4.795l1.795.144 1.89.48.752.37.028.362c0 .301-.048 1.074-.213 2.396l.755.144c.24-1.438.402-2.238.457-2.388l.521-2.391-.04-.218-.288-.144-1.451-.288-2.013-.192a83.123 83.123 0 0 1-2.995-.411l-1.299-.172zm-53.742 1.494-1.389.144-.583 3.868-1.746 10.977c-.28 2.123-.554 3.486-.65 4.191a39.232 39.232 0 0 1-.46 2.602l-.164.541-.238.255-.96.226.11 1.41 2.26-.288 2.313-.075-.123-1.397-1.438-.22-.21-.52c-.035-.376.032-1.362.271-2.916l.283-2.07 5.095-.403 1.142 3.636.337 1.348-.131.5-1.323.342.11 1.372 3.46-.385 2.758-.124-.088-1.376-.467-.041-.568-.075-.246-.185-.205-.398-.542-1.546-.786-2.239zm-119.87 3.033a7.421 7.421 0 0 0-2.597.337l-1.936.875-1.376 1.533c-.418.665-.774 1.521-1.069 2.576a170.76 170.76 0 0 0-.59 2.65 115.009 115.009 0 0 1-.617 3.184c-.3.966-.609 1.718-.945 2.252l-1.307 1.117-2.136.398c-1.171-.013-2.246-.529-3.143-1.535-.856-1.007-1.295-2.423-1.24-4.176.04-1.253.281-2.369.767-3.369.452-1.04.966-1.7 1.582-2.11.644-.083 1.727-.116 3.254-.116l.04-1.651a29.448 29.448 0 0 1-3.232-.293l-2.52-.46-.472.165c-.534.945-.885 2.075-1.186 3.39a23.909 23.909 0 0 0-.473 4.034c-.02 1.321.09 2.668.329 3.949.294 1.267.734 2.446 1.412 3.459.664 1.034 1.609 1.869 2.848 2.52 1.212.657 2.567.987 4.019 1.042 1.061 0 2.068-.139 3-.447.903-.336 1.679-.788 2.357-1.48.65-.684 1.184-1.566 1.56-2.716.261-.733.63-2.316 1.177-4.671.431-1.657.85-2.815 1.212-3.43l1.459-1.439 2.116-.444c1.006.068 1.87.273 2.645.732.773.486 1.361 1.21 1.759 2.21.431.987.636 2.098.608 3.365-.061 1.424-.369 2.75-1.02 3.929-.657 1.198-1.395 2.055-2.23 2.534-1.412.13-2.605.165-3.57.11l-.02 1.65c3.088.095 5.348.37 6.868.816a23.366 23.366 0 0 0 1.657-4.13c.301-1.253.493-2.698.513-4.342.09-2.177-.191-4.102-.78-5.69a10.28 10.28 0 0 0-1.726-2.917 10.098 10.098 0 0 0-2.56-2.28c-1.28-.7-2.774-1.076-4.438-1.13zm23.74.075c17.873 13.415 11.525 33.521 11.525 33.521s-5.266-21.036-7.56-24.385c0 0-1.026-1.336-1.965-.85-.383.206-.719.644-1.006 1.623 0 0 3.204 9.136 5.395 16.422.972 3.39 1.76 6.382 1.931 7.881-14.565-12.538-8.32-34.212-8.32-34.212zm252.992 0s6.198 21.674-8.3 34.212c.124-1.5.934-4.491 1.927-7.88l.028-.114c2.163-7.268 5.326-16.309 5.326-16.309-.253-.979-.623-1.417-.986-1.623-.932-.486-1.972.85-1.972.85-2.315 3.349-7.58 24.385-7.58 24.385s-6.343-20.107 11.557-33.521zm-127.71.726 2.123 8.698-2.049.011-2.121-.011zm161.278.573a8.89 8.89 0 0 0-1.088.001c-1.028.034-2.007.205-2.918.588a6.555 6.555 0 0 0-2.293 1.68c-.61.643-1.061 1.628-1.356 2.786-.212.732-.5 2.335-.932 4.725-.308 1.657-.628 2.8-.97 3.525l-1.364 1.508-2.088.534a5.728 5.728 0 0 1-2.711-.575c-.767-.384-1.391-1.109-1.898-2.067-.466-.966-.734-2.09-.788-3.295-.055-1.465.247-2.753.788-4.006.589-1.24 1.28-2.137 2.088-2.658 1.37-.212 2.541-.362 3.48-.362l-.055-1.636c-3.068.076-5.362-.015-6.861-.364a19.703 19.703 0 0 0-1.426 4.19c-.226 1.274-.335 2.712-.267 4.376.076 2.185.48 4.075 1.138 5.588a9.595 9.595 0 0 0 1.903 2.835c.842.89 1.725 1.61 2.732 2.124 1.28.637 2.78.917 4.47.875a8.536 8.536 0 0 0 2.597-.485l1.882-1.014 1.274-1.644c.384-.664.658-1.513.912-2.588.048-.438.22-1.335.357-2.725.198-1.342.369-2.402.485-3.176.246-.993.499-1.801.793-2.28l1.248-1.254 2.101-.521c1.198-.055 2.254.39 3.212 1.335.945.959 1.44 2.35 1.528 4.109a8.351 8.351 0 0 1-.583 3.418c-.41.993-.884 1.76-1.445 2.198-.63.117-1.712.231-3.226.313l.05 1.644c1.335 0 2.457.04 3.237.04l2.548.324.472-.151c.439-.986.76-2.13.945-3.439.22-1.355.282-2.663.234-4.067a17.743 17.743 0 0 0-.583-3.945c-.329-1.26-.897-2.367-1.602-3.353-.733-1.014-1.726-1.769-2.98-2.337a8.47 8.47 0 0 0-3.04-.776zm-191.539 1.577 2.807 8.5-2.013.21-2.122.124zm-64.563 26.385c.888.035 1.823.111 2.81.239 0 0-12.532 3.782-18.633 8.52 0 0 2.504-9.28 15.823-8.759zm192.043 0c13.342-.521 15.852 8.76 15.852 8.76-6.067-4.74-18.667-8.521-18.667-8.521a31.632 31.632 0 0 1 2.815-.239zm-226.61.337c11.724 4.218 14.566 18.132 14.566 18.132l-4.335-2.417c-6.855-8.375-10.23-15.715-10.23-15.715Zm261.238 0s-3.402 7.34-10.264 15.715l-4.35 2.417s2.864-13.914 14.614-18.132zm-221.712 2.737s-7.415 6.431-16.707 6.91c0 0 8.647-5.17 16.707-6.91zm182.118 0c8.107 1.74 16.722 6.91 16.722 6.91-9.286-.479-16.723-6.91-16.723-6.91zm-223.518.378c2.951 6.532 7.264 10.97 7.264 10.97h-1.376c-5.8-5.56-5.888-10.97-5.888-10.97zm264.99 0s-.159 5.41-5.945 10.97h-1.343s4.343-4.438 7.288-10.97zm-290.43 2.087c-4.089 0-7.376 3.308-7.376 7.396a7.354 7.354 0 0 0 7.375 7.362c4.054 0 7.375-3.288 7.375-7.362 0-4.088-3.32-7.396-7.375-7.396zm315.683 1.027c-4.102 0-7.368 3.342-7.368 7.396 0 4.068 3.266 7.383 7.368 7.383a7.363 7.363 0 0 0 7.375-7.383c0-4.054-3.267-7.396-7.375-7.396zm-250.553 1.5s.642 13.943-10.013 19.257c0 0 3.911-8.094 5.534-16.517zm185.602 0 4.466 2.74c1.63 8.423 5.539 16.517 5.539 16.517-10.683-5.314-10.005-19.257-10.005-19.257zm-100.786 1.022v32.39c9.169 4.574 15.716 0 15.716 0v-32.39c-9.84 6.259-15.716 0-15.716 0zm-92.98 2.766s-2.547 11.08-4.807 13.908c0 0-.96-7.979.547-12.827zm201.852 0 4.33 1.08c1.486 4.85.56 12.828.56 12.828-2.315-2.828-4.89-13.908-4.89-13.908zm-209.782 1.89s-.814 8.353 0 11.6l-3.253-3.786s-1.322-6.33-2.013-7.678zm217.774 0 5.259.136c-.699 1.349-2.034 7.678-2.034 7.678l-3.225 3.785c.808-3.246 0-11.6 0-11.6zM56.397 216.84c15.21-.084 20.394 11.068 20.394 11.068-8.936-5.252-24.035-10.28-24.035-10.28-1.363-.376-2.294 1.495-2.294 1.495l-1.212-1.495c2.597-.535 4.974-.776 7.147-.788zm263.1 0c2.172.011 4.548.253 7.144.788l-1.164 1.495s-.957-1.871-2.313-1.495c0 0-15.095 5.028-24.051 10.28 0 0 5.18-11.152 20.384-11.068zm-267.563 4.042c11.196 2.972 24.434 10.629 24.434 10.629-14.716 3.266-24.434-10.629-24.434-10.629zm272.031 0s-9.69 13.895-24.426 10.629c0 0 13.257-7.657 24.426-10.629zm7.848 7.765-1.57 4.199c-.157.363-.485 1.144-1.04 2.321l1.575 1.546c.41.425 1.5 1.576 3.246 3.5l3.13 3.377c.828.918 1.964 2.156 3.423 3.867l-10.978.76-2.499.111-3.258.144a39.31 39.31 0 0 1-1.069 2.93c-.267.733-.863 2-1.671 3.944l1.184.473.862-1.582.344-.416.35-.036c.342 0 1.21.302 2.704.85 1.424.568 3.144 1.24 5.02 1.993 2.11.821 3.614 1.445 4.463 1.836 1.767.746 2.89 1.308 3.41 1.561l.48.375.075.329c0 .246-.157.94-.514 2.008l1.187.477c.274-.897.685-2.012 1.273-3.443.432-1.096.903-2.138 1.361-3.192l-1.176-.493c-.445.945-.727 1.52-.857 1.664l-.411.323h-.534c-.233-.048-1.128-.384-2.717-.993a63.62 63.62 0 0 1-4.104-1.595l-6.895-2.732 8.978-.678c1.376-.096 3.464-.199 6.237-.35 1.603-.082 2.878-.143 3.796-.143l.375-.974-1.965-2.02c-1.321-1.425-2.348-2.527-3.033-3.267l-2.616-2.848-5.267-5.883 10.184 4.088c1.945.76 3.088 1.255 3.423 1.515l.506.596c.041.212-.178.903-.595 2.067l1.206.465 1.685-4.389 1.841-4.388-1.178-.493c-.487 1-.752 1.561-.827 1.684l-.337.226-.398.034c-.274-.062-1.04-.26-2.252-.691-.192-.055-.897-.337-2.095-.796l-4.897-1.985-3.937-1.63-1.754-.766-1.155-.858c-.117-.349 0-.972.41-1.972l.062-.157zm-294.899 1.808c-1.415-.022-2.866.257-4.365.822-1.72.733-3.218 1.684-4.41 3.012-.815.842-1.43 1.85-1.951 3.015a10.04 10.04 0 0 0-.78 3.895c-.028 1.767.396 3.711 1.15 5.683.582 1.41 1.19 2.563 1.792 3.364.603.87 1.452 1.733 2.547 2.67l1.693.104.177-.534c-.918-.76-1.678-1.53-2.24-2.317-.568-.773-1.019-1.65-1.41-2.58-.581-1.486-.868-2.83-.854-4.055.061-.856.286-1.84.752-2.902.425-.993 1.137-1.988 2.075-2.891.945-.898 2.192-1.622 3.726-2.273 2.5-1.027 4.689-1.095 6.62-.362 1.98.78 3.37 2.225 4.28 4.499.48 1.205.733 2.3.692 3.184 0 .938-.212 1.828-.609 2.725-.589.349-1.397.726-2.424 1.158l.424 1.08a85.697 85.697 0 0 1 3.081-.903l1.823-.316.157-.17a22.553 22.553 0 0 0-.424-3.89c-.226-1.102-.596-2.259-1.096-3.567-1.514-3.739-3.594-6.191-6.279-7.465a9.95 9.95 0 0 0-4.147-.986zm47.027 2.979s9.176 2.849 10.115 26.337l-1.349-.398s-5.788-9.73-6.322-16.88c0 0-1.37-7.84-2.444-9.059zm208.022 0c-1.075 1.219-2.395 9.06-2.395 9.06-.548 7.149-6.369 16.879-6.369 16.879l-1.356.398c.931-23.488 10.12-26.337 10.12-26.337zm-211.145.69s3.253 9.33 2.863 11.603c0 0 3.09 10.538 4.568 11.907l-3.615-.588s-6.227-9.294-3.816-22.921zm214.263 0c2.445 13.628-3.78 22.922-3.78 22.922l-3.657.588c1.48-1.37 4.602-11.907 4.602-11.907-.425-2.274 2.835-11.602 2.835-11.602zm-217.637.247s-.652 5.657-.09 8.937l-5.177-3.513-2.391-4.725s5.768.397 7.658-.699zm26.357 0c-3.109 1.91-9.466 7.547-9.466 7.547l-.67-2.02c3.794-5.773 10.136-5.527 10.136-5.527zm168.317 0s6.35-.246 10.136 5.526l-.678 2.021s-6.349-5.636-9.458-7.547zm26.337 0c1.876 1.096 7.704.699 7.704.699l-2.437 4.725-5.123 3.513c.514-3.28-.144-8.937-.144-8.937zm-191.17 1.515c-1.465 7.971-11.052 12.545-11.052 12.545l-.534-3.254c2.835-3.657 11.587-9.29 11.587-9.29zm161.328 0s8.786 5.634 11.628 9.291l-.583 3.254s-9.559-4.574-11.045-12.545zm-204.72 6.169c14.18.12 15.741 11.668 15.741 11.668-8.532-8.655-21.05-10.942-21.05-10.942-3.101 0-1.227 2.54-1.227 2.54 13.49 3.773 18.628 9.745 18.628 9.745-10.258-1.102-21.34-11.758-21.34-11.758 3.563-.908 6.622-1.276 9.248-1.253zm248.123 0c2.626-.023 5.686.345 9.25 1.253 0 0-11.06 10.656-21.332 11.758 0 0 5.144-5.972 18.661-9.745 0 0 1.878-2.54-1.245-2.54 0 0-12.567 2.287-21.044 10.942 0 0 1.53-11.548 15.71-11.668zM50.162 247.31l-1.104.608c.548 1.116.794 1.822.821 2.144l-.148.3c-.144.2-.823.645-1.919 1.241l-2.806 1.567-5.008 2.706-3.985 1.957-1.644.686-.431.115-.272-.17c-.172-.15-.556-.712-1.117-1.746l-1.184.65a93.508 93.508 0 0 1 2.129 3.834 116.717 116.717 0 0 1 2.41 4.679l1.213-.616-.734-1.603-.083-.431.098-.303.904-.658c.246-.144 1.272-.74 3.094-1.746a57.932 57.932 0 0 1 4.273-2.321c.85-.486 2.54-1.369 5.136-2.684 1.143-.54 1.868-.882 2.231-1.06l.748 1.217c.527.965.8 1.678.896 2.116l-.37 2.075-1.73 1.72-2.522.588-2.116-.644c-.569-.418-1.117-1.19-1.664-2.245l-.486.062-.46 1.327c-.43.993-1.15 2.274-2.095 3.801l-3.19 5.41-.603.725 1.192 2.095c.329.65.848 1.645 1.533 3.048l1.117-.595-.321-.925.103-.596c.068-.219.39-.952.924-2.082.041-.014.327-.609.848-1.615l2.049-3.752.136-.308.514-.925.814-1.397c1.3 1.13 2.533 1.752 3.82 1.978 1.2.178 2.377 0 3.473-.58.897-.48 1.54-1.117 1.951-1.993l.275-2.44c-.171-.808-.636-1.93-1.39-3.313a71.313 71.313 0 0 0-1.52-2.752c-.41-.637-.822-1.439-1.343-2.384-.582-1.109-1.041-1.945-1.343-2.575-.623-1.233-.977-1.978-1.114-2.19zm112.85 2.334c-2.65.986-4.594 1.692-5.847 2.123-1.26.384-2.945.95-5.061 1.526l-.034.118.226 1.114.172 1.146.206.123c.643-.384 2.102-1.028 4.396-2.042l.773-.3.275.19.115.706.034 1.528c.04 1.678.049 3.287.049 4.746v4.252c0 3.17-.068 5.204-.198 6.155l-.357.953-.801.272-3.362.386v1.471c3.897-.075 6.43-.115 7.511-.115 1.59 0 3.678.04 6.266.115v-1.471l-1.137-.09c-1.397-.069-2.233-.198-2.507-.321l-.362-.37c-.13-.267-.184-1.11-.198-2.65-.095-.973-.138-2.781-.138-5.329v-2.65c.075-4.239.137-6.867.151-7.86 0-.267.054-.877.116-1.787.068-.952.123-1.488.123-1.68zm39.266.07c-.219.013-.966.127-2.308.436l-2.1.41c-.5.644-1.323 1.836-2.474 3.678-1.13 1.8-2.52 4.308-4.17 7.485-1.198 2.329-1.965 3.917-2.26 4.828l.219 1.492c2.15-.089 4.26-.087 6.396-.087h2.363c-.076 1.849-.076 2.882-.124 3.073l-.308 1.076-.562.247c-.288.103-1.368.158-3.292.288v1.471l6.127-.116 4.54.088 1.412.028v-1.471l-2.295-.221-.72-.314-.308-.562c-.082-.63-.107-1.82-.107-3.587h3.333l-.129-1.31.129-1.587-.129-.193-2.534.103-.67-.011v-3.98c.027-3.767.053-6.163.108-7.252.061-1.65.11-2.923.18-3.731zm-23.488.382c-2.301 0-4.176.753-5.655 2.342-1.5 1.602-2.255 3.67-2.255 6.34 0 2.198.564 3.863 1.598 5.061 1.02 1.117 2.313 1.739 3.834 1.739l2.547-.424.616-.398c.418-.335 1.15-1.013 2.322-2.034-.192 1.829-.384 3.185-.658 4.076a13.31 13.31 0 0 1-1.487 3.163c-.657.952-1.513 1.672-2.526 2.268-1.007.554-2.115.875-3.272.875l-1.29-.218-.423.678 1.369 1.122c1.74 0 3.343-.293 4.843-.958 1.486-.623 2.834-1.541 4.122-2.78 1.232-1.226 2.224-2.711 2.95-4.45.74-1.74 1.11-3.856 1.11-6.349 0-2.177-.28-3.924-.827-5.308-.548-1.43-1.392-2.568-2.563-3.438-1.116-.884-2.568-1.307-4.355-1.307zm38.32 0c-.951 0-1.855.136-2.71.424l-2.22 1.37c-.643.549-1.226 1.308-1.712 2.253-.5.924-.875 1.925-1.033 3.069-.294 1.657-.431 3.518-.431 5.592 0 1.884.121 3.57.313 5.07.254 1.506.658 2.8 1.315 3.759.644 1.007 1.46 1.786 2.452 2.306 1.034.5 2.185.747 3.554.747 1.144 0 2.103-.15 2.897-.493l2.178-1.348c.63-.616 1.224-1.447 1.717-2.501.528-1.02.912-2.3 1.076-3.76.185-1.465.309-3.175.309-5.14 0-2.767-.26-4.926-.732-6.467-.5-1.568-1.288-2.764-2.383-3.64-1.11-.816-2.603-1.241-4.59-1.241zm-38.757 1.918c1.164 0 2.061.54 2.63 1.656.589 1.096.883 2.644.883 4.643 0 1.02-.084 1.76-.324 2.33l-1.122 1.278-1.615.473-1.782-.637-1.315-1.685c-.322-.815-.485-1.868-.485-3.169 0-1.78.28-3.014.896-3.746.589-.76 1.323-1.143 2.234-1.143zm38.314 0 1.479.478 1.068 1.425c.301.664.52 1.663.678 2.971.315 2.445.485 4.87.485 7.342 0 3.814-.356 6.163-.945 7.17-.637.951-1.425 1.445-2.37 1.445l-2.06-1.014c-.588-.706-1.021-2.11-1.289-4.24-.253-2.15-.395-4.608-.395-7.231 0-2.61.176-4.54.56-5.835.253-.883.652-1.54 1.125-1.943zm-18.525.945-.088 3.272-.04 2.288-.07 6.437h-6.382c1.274-2.752 2.286-4.767 3.025-6.055.72-1.3 1.89-3.278 3.554-5.942zm-85.57 2.368c12.97 10.388 13.873 27.502 13.873 27.502-5.232-2.3-11.982-23.57-11.982-23.57-.274-2.048-2.568-1.39-2.568-1.39.144-1.48.678-2.542.678-2.542zm150.79 0s.507 1.063.657 2.542c0 0-2.282-.658-2.563 1.39 0 0-6.737 21.27-12.01 23.57 0 0 .94-17.114 13.916-27.502zm56.849.267-1.718 2.925-.206.349a69.174 69.174 0 0 1-1.815 2.732l1.083.67c.603-.945 1.123-1.54 1.438-1.677l.473-.123c.26.055.965.403 2.088 1.06.493.302 1.87 1.152 4.17 2.597l2.637 1.63c1.822 1.137 2.971 2.074 3.464 2.8.466.698.67 1.527.67 2.472-.061.993-.465 2.074-1.232 3.26-.657 1.081-1.313 1.808-2.018 2.287l-2.165.789-2.35-.632c-.363-.192-1.383-.78-2.958-1.767l-1.505-.93-2.979-1.848c-1.855-1.158-3.008-1.945-3.466-2.404l-.273-.55c-.02-.349.273-.998.856-1.943l-1.061-.645-.303.488-1.048 1.751-1.06 1.787-2.7 4.17 1.097.653 1.2-1.597.534-.067.93.329c1.006.547 2.102 1.21 3.335 1.936l3.259 2.07 2.485 1.587c1.356.8 2.206 1.35 2.556 1.474l1.861.485 2.214-.288 2.3-1.389a14.585 14.585 0 0 0 2.828-3.356 11.747 11.747 0 0 0 1.492-3.192c.288-1.007.405-1.93.295-2.89-.075-.876-.294-1.71-.698-2.395l-1.677-2.013-2.3-1.713-3.036-1.836a97.88 97.88 0 0 1-3.629-2.424c-1.506-1.02-2.356-1.623-2.514-1.829l-.23-.472.764-1.623zM77.898 259.62c21.425.225 28.204 14.573 28.204 14.573-14.997-10.066-27.693-13.484-27.693-13.484-2.424-.938-2.308 1.774-2.308 1.774-1.356-.725-2.684-2.711-2.684-2.711a51.751 51.751 0 0 1 4.481-.152zm220.12 0a51.865 51.865 0 0 1 4.484.152s-1.341 1.986-2.683 2.711c0 0 .117-2.712-2.293-1.774 0 0-12.712 3.418-27.688 13.484 0 0 6.753-14.348 28.18-14.573zm-186.8.406c9.168 26.597 15.407 27.04 15.407 27.04v1.043c-19.592-7.58-15.408-28.083-15.408-28.083zm153.48 0s4.203 20.502-15.396 28.083v-1.043s6.205-.443 15.395-27.04zm-187.619 3.382s9.013 2.04 26.981 13.222c0 0-15.812.713-26.981-13.222zm221.774 0c-11.21 13.935-26.994 13.222-26.994 13.222 17.948-11.182 26.994-13.222 26.994-13.222zm-238.912 1.985-1.063.747c.623.986 1.001 1.644 1.063 1.931l-.062.316c-.157.247-.651.717-1.59 1.443-1.39 1.007-2.177 1.61-2.403 1.734l-5.588 3.993c-.664.424-1.725 1.163-3.176 2.129l-1.782 1.068-1.595-.699-.645.493c1.856 2.514 2.864 3.896 3.036 4.06.54.754 1.472 2.096 2.855 4.089l1.397 2.033c.692.993 1.26 1.727 1.685 2.206l.287.041c1.034-.753 2.457-1.629 4.237-2.622l-.711-1.042c-1.24.65-2.122 1.027-2.622 1.191h-.357l-1.22-1.232-1.861-2.41a82.549 82.549 0 0 1-1.616-2.418l1.485-1.163 5.246-3.732 1.507 1.924 1.418 2.308.067.76c-.117.288-.663.773-1.649 1.444l.794 1.055 2.69-1.96 2.767-1.915-.753-1.022-1.697.96h-.386l-.641-.706c-.856-1.143-1.379-1.835-1.495-2.034l-1.217-1.82 2.532-1.829c1.465-1.013 2.686-1.787 3.692-2.362l1.71 2.219a21.834 21.834 0 0 1 1.57 2.532l.521 1.104-.16.341c-.164.206-.746.692-1.704 1.377l.685.994c1.117-.692 1.725-1.09 1.903-1.15l1.926-1.077.108-.192-.218-.445a88.47 88.47 0 0 0-1.233-1.856l-1.862-2.499c-1.027-1.349-1.932-2.616-2.747-3.739l-1.135-1.651zm67.875 4.65s1.34.143 3.087.835c0 0-1.623.933-.39 2.953 0 0 10.689 9.565 19.454 20.076 0 0-10.927-.916-22.15-23.864zm120.282 0c-11.196 22.948-22.146 23.864-22.146 23.864 8.772-10.511 19.447-20.076 19.447-20.076 1.226-2.02-.41-2.953-.41-2.953 1.766-.692 3.109-.835 3.109-.835zm-114.332 2.145c11.333 3.109 16.468 17.023 16.468 17.023-.52-1.63-16.468-17.023-16.468-17.023zm108.387 0s-15.915 15.393-16.442 17.023c0 0 5.116-13.914 16.442-17.023zm65.398 3.135a80.66 80.66 0 0 1-3.143 4.212c-1.007 1.342-1.925 2.443-2.753 3.464l1.04.816 1.286-1.438.378-.18.349.062c.274.13.951.57 2.006 1.31.458.342 1.515 1.135 3.117 2.347l5.046 3.91c.801.63 1.692 1.33 2.596 2.158l1.074.958.138.282-.164.465-1.048 1.466 1.094.842a59.165 59.165 0 0 1 2.596-3.533c1.15-1.486 2.24-2.87 3.287-4.158l-1.047-.793-1.205 1.369-.41.254-.412-.057-1.7-1.114-2.223-1.651-4.897-3.767c-.151-.083-1.178-.944-3.144-2.512l-1.178-.94-.67-.732-.062-.259.095-.467 1.014-1.492zm-156.105 2.925c21.612 7.3 21.332 22.824 21.332 22.824-2.828-.925-16.75-18.607-16.75-18.607-3.637-1.623-2.28 2.157-2.28 2.157 5.258 6.478 12.97 15.674 12.97 15.674-12.58-2.424-15.272-22.048-15.272-22.048zm73.012 0s-2.704 19.624-15.27 22.048c0 0 7.69-9.196 12.997-15.674 0 0 1.322-3.78-2.321-2.157 0 0-13.908 17.682-16.743 18.607 0 0-.282-15.524 21.337-22.824zm-94.739 1.644s4.444 6.586 5.67 7.963l-3.513.377s.253-2.124-2.034-2.686zm116.453 0-.103 5.654c-2.3.562-2.046 2.686-2.046 2.686l-3.485-.377c1.185-1.377 5.634-7.964 5.634-7.964zm-145.894.03c7.144-.212 13.101 2.276 13.101 2.276.274.938 5.419 5.246 5.419 5.246-8.136-2.438-23.625-4.98-23.625-4.98-2.87.788-.555 2.802-.555 2.802 12.278 2.315 24.83 5.835 24.83 5.835-18.757 5.293-32.282-6.76-32.282-6.76 4.111-3.191 8.825-4.291 13.112-4.419zm175.371 0c4.282.128 8.983 1.228 13.063 4.42 0 0-13.485 12.052-32.248 6.759 0 0 12.561-3.52 24.853-5.835 0 0 2.293-2.014-.542-2.801 0 0-15.539 2.541-23.612 4.979 0 0 5.09-4.308 5.377-5.246 0 0 5.973-2.488 13.11-2.276zm25.703 3.55-.93 1.116c-.589.596-1.78 1.855-3.554 3.67l-4.309 4.445c-1.719 1.76-2.908 2.964-3.538 3.567l-1.125 1.042.028.206 1.122.904c.206.137 1.048.957 2.568 2.388l.912-.904-1.575-1.833-.246-.501.308-.465 1.924-2.193 1.527-1.587c.268.171 1.259 1.162 3.046 2.881l6.548 6.384c1.575 1.513 2.486 2.5 2.712 2.876l.123.753-1.33 1.718.87.878c1.254-1.431 2.398-2.632 3.398-3.693.931-.945 2.128-2.073 3.56-3.436l-.897-.878-1.697 1.376-.76-.074c-.384-.247-1.35-1.115-2.925-2.643l-6.567-6.347c-1.753-1.726-2.733-2.665-2.966-2.925l1.508-1.61 2.177-2.055.424-.246.609.267 1.774 1.433.912-.912c-1.548-1.527-2.335-2.26-2.404-2.37l-1.027-1.233zm-224.463 3.656-3.472 1.31-9.938 3.682c-1.876.72-3.136 1.178-3.78 1.376-1.383.5-2.198.77-2.403.817l-.58.067-.432-.17-1.104-.98-.95.85 2.47 2.56 2.28 2.657.932-.875c-.78-.904-1.192-1.522-1.26-1.782l.225-.54c.24-.226 1.076-.645 2.445-1.186l1.808-.732 5.26 5.765-1.562 3.225-.704 1.076-.472.172c-.185-.089-.68-.555-1.59-1.384l-.932.822 3.698 3.911 2.773 3.128.925-.786-.375-.562-.534-.748-.05-.349.083-.485.616-1.397.924-2.116 7.17-15.75zm-4.104 3.41-3.615 7.67c-.61-.636-1.375-1.368-2.142-2.293l-2.152-2.419zm59.83.886c2.446-.07 5.133.373 8.04 1.567 0 0-19.735 5.93-21.857 7.013 0 0-1.227.422-.974 1.73l-1.882-.082s6.076-9.923 16.674-10.228zm110.704 0c10.6.305 16.653 10.228 16.653 10.228l-1.877.083c.26-1.308-.932-1.731-.932-1.731-2.185-1.082-21.892-7.013-21.892-7.013 2.912-1.194 5.602-1.637 8.048-1.567zm-160.103 3.23-.78 1.22c-.158.199-.906 1.15-2.173 2.8l.994.795 1.685-1.692.48-.349.519.28 2.32 1.761 1.7 1.34c-.157.254-1.026 1.364-2.608 3.288l-5.74 7.082c-1.39 1.733-2.258 2.733-2.621 2.958l-.74.232c-.267-.076-.876-.457-1.849-1.218l-.788.986c1.513 1.117 2.836 2.087 3.952 3.026 1.054.87 2.328 1.931 3.821 3.212l.765-.917c-.924-.822-1.457-1.356-1.525-1.59l.02-.76c.172-.397.952-1.459 2.342-3.17l5.778-7.088c1.52-1.87 2.383-2.957 2.65-3.21l1.685 1.36a30.413 30.413 0 0 1 2.254 1.98l.314.399-.252.629-1.281 1.91 1.02.789c1.341-1.644 2.04-2.536 2.123-2.584l1.17-1.142-.053-.206-1.158-.8c-.671-.549-2.008-1.644-4.014-3.185l-4.779-3.916c-1.951-1.562-3.252-2.664-3.895-3.205l-1.13-1.014zm61.487.637 1.479.781s-9.306 6.368-22.947 5.662c0 0 17.845-5.922 21.468-6.443zm86.521 0c3.657.52 21.476 6.443 21.476 6.443-13.641.706-22.983-5.662-22.983-5.662zm-81.791 2.288 3.513.678c-3.773 3.397-10.154 4.307-10.154 4.307 2.452-1.876 6.641-4.985 6.641-4.985zm77.066 0s4.192 3.109 6.623 4.985c0 0-6.362-.91-10.149-4.307zm60.652.198a76.852 76.852 0 0 1-3.952 3.493 143.7 143.7 0 0 1-3.418 2.786l.87 1.035 1.541-1.171.424-.062.275.131c.288.192.835.752 1.726 1.71.397.452 1.233 1.44 2.534 2.946l4.134 4.869c.665.828 1.358 1.712 2.09 2.657l.835 1.205.075.267-.247.41-1.32 1.233.863 1.069c.959-.897 2.04-1.864 3.272-2.946a102.012 102.012 0 0 1 4.108-3.354l-.842-1.006-1.479 1.094-.472.151-.355-.151-1.417-1.402-1.857-2.157-3.973-4.671c-.13-.117-.979-1.171-2.588-3.102l-.917-1.159-.542-.875-.005-.267.206-.403 1.315-1.27zm-7.745 6.964-2.706 1.862-3.28 2.09.727 1.069 1.451-.81.506-.197.287.026.288.282.2.28c.11.404.322 1.24.637 2.506.411 1.856.63 2.823.658 3.069l1.759 8.847-8.382-5.732-.254-.218-1.328-.912c-1.452-1.007-2.273-1.637-2.437-1.898l-.11-.416.28-.405 1.466-1.135-.727-1.09-4.52 3.046c-.438.322-1.705 1.097-3.78 2.37l.727 1.118 1.746-.83 1.48.624c.76.432 2.945 1.903 6.581 4.348l4.648 3.15c1.726 1.199 3.534 2.417 5.403 3.732l1.952-1.266c-.445-1.794-1.074-4.946-1.895-9.383l-.96-5.24-.499-2.752c-.438-2.184-.548-3.485-.452-3.78l1.258-1.253zm-91.446.933c12.12.3 22.605 4.067 22.605 4.067-10.32 2.233-21.07 2.219-22.515 2.157h-.165c-1.465.062-12.225.076-22.53-2.157 0 0 10.484-3.766 22.605-4.067zm-89.118 1.71-.732 1.11c.904.63 1.417 1.028 1.533 1.165l.226.329-.082.362c-.103.322-.479.992-1.122 2.108-.329.534-1 1.638-2.096 3.315l-3.466 5.342c-.59.862-1.24 1.793-1.952 2.786l-.863 1.117-.267.136-.472-.136c-.144-.006-.677-.336-1.587-.842l-.72 1.117c1.11.657 2.343 1.376 3.719 2.321 1.575 1.013 3.061 2 4.396 2.958l.745-1.117-1.484-1.101-.267-.411v-.365l.978-1.8 1.487-2.39 3.333-5.137c.089-.171.842-1.272 2.24-3.333l.87-1.227.657-.781.267-.149.432.095 1.61.896.752-1.114a120.958 120.958 0 0 1-4.527-2.781c-1.383-.904-2.58-1.74-3.608-2.473zm8.526 6.034-.588 1.177 1.54 1.088c.13.213.219.728.219 1.618-.048.87-.199 3.498-.534 7.894l-.44 5.616c-.17 2.02-.342 4.198-.554 6.492l2.082 1.035c1.315-1.24 3.712-3.356 7.19-6.266l4.089-3.446 2.103-1.731c1.74-1.486 2.766-2.26 3.115-2.309.198-.013.788.123 1.671.486l.617-1.171-3-1.418-3.39-1.854-.603 1.163 1.43.884.51.308.066.288-.067.37-.213.336c-.294.322-.918.93-1.87 1.8-1.342 1.233-2.095 1.904-2.3 2.041l-6.82 5.963.87-10.153.02-.275c.028-.096.06-.658.129-1.651.164-1.76.31-2.774.467-3.04l.267-.28.506.02 1.726.69.603-1.196-4.918-2.342c-.472-.26-1.76-.959-3.923-2.137zm149.68 5.622c-.85.11-1.958.554-3.383 1.245-.74.37-1.657.829-2.773 1.48-.65.362-1.486.787-2.424 1.252-1.13.52-1.96.987-2.625 1.282-1.246.548-1.97.932-2.19 1.035l.526 1.101c1.206-.486 1.897-.747 2.199-.747l.308.139c.191.226.602.842 1.17 1.992l1.48 2.861 2.534 5.02 1.829 4.055.69 1.69.062.46-.185.233c-.144.15-.732.526-1.738 1.074l.595 1.227c1.171-.664 2.485-1.39 3.875-2.062a157.447 157.447 0 0 1 4.795-2.273l-.568-1.199c-.917.411-1.46.665-1.638.727h-.486l-.287-.062-.637-.945c-.116-.226-.733-1.296-1.643-3.158-.781-1.48-1.542-2.931-2.206-4.335-.425-.835-1.266-2.6-2.458-5.182-.575-1.164-.904-1.94-1.068-2.234l1.281-.773c.98-.52 1.683-.78 2.142-.814l2.029.424 1.669 1.808.529 2.534-.699 2.088c-.417.534-1.198 1.068-2.3 1.561l.053.493 1.295.506c1.027.486 2.247 1.253 3.767 2.198l5.292 3.377.748.583 2.128-1.089c.603-.35 1.652-.795 3.07-1.466l-.571-1.158-.904.308-.642-.067c-.205-.103-.891-.425-2.041-1.007-.062-.04-.61-.321-1.59-.883l-3.69-2.165-.3-.156-.879-.563-1.422-.883c1.17-1.22 1.854-2.473 2.12-3.665.206-1.266.07-2.422-.472-3.538-.48-.938-1.11-1.548-1.93-1.993zm-128.472 5.156-.488 1.26c1.034.46 1.59.693 1.754.782l.296.308v.349c-.006.315-.247 1.129-.658 2.334-.198.548-.644 1.768-1.363 3.665l-2.268 5.929c-.356.98-.779 2.021-1.32 3.13l-.603 1.328-.247.123h-.423c-.206 0-.754-.17-1.767-.493l-.48 1.2c1.232.438 2.596.91 4.137 1.491 1.76.651 3.43 1.323 4.93 2l.465-1.28c-.911-.384-1.48-.643-1.664-.732l-.357-.33-.062-.377c.02-.335.207-1.006.59-1.972l.93-2.609 2.173-5.752c.089-.185.587-1.404 1.484-3.739l.59-1.397.486-.904.239-.156h.452c.178 0 .79.176 1.762.518l.472-1.245c-1.589-.52-3.212-1.13-4.971-1.754-1.555-.644-2.91-1.163-4.089-1.677zm113.392 1.52-.513.075c-1.062.308-1.82.542-2.17.644l-2.904 1.04c-1.617.576-3.083 1.056-4.404 1.508l-1.916.608-3.37.994.383 1.24c1.158-.28 1.905-.446 2.186-.385l.287.139c.172.198.479.84.855 1.936a242.98 242.98 0 0 1 1.007 2.781l2.095 6.554c.254.732.61 1.944 1.076 3.636.26.917.444 1.588.52 2.026l-1.156 1.302.272.788c2.958-1.013 4.575-1.61 4.794-1.672.884-.28 2.492-.767 4.758-1.528l2.363-.677a53.043 53.043 0 0 0 2.609-.992l.103-.267c-.39-1.225-.795-2.843-1.192-4.781l-1.217.349c.22 1.349.328 2.295.32 2.822l-.102.28-1.533.87c-.85.35-1.794.67-2.856 1.04-1.06.35-2.033.637-2.814.863l-.637-1.813-2.013-6.13c.603-.26 1.335-.52 2.28-.841a29.265 29.265 0 0 1 2.63-.67l.765.177c.233.17.549.856.891 2l1.233-.426-1.097-3.115-.986-3.233-1.176.357c.274.91.383 1.479.383 1.93l-.07.342-.909.427c-1.342.472-2.152.773-2.378.842l-2.087.637-.966-3.007c-.575-1.678-.959-3.069-1.17-4.24.896-.308 1.738-.656 2.62-.95.864-.329 1.844-.563 2.844-.747l1.232-.124.275.185c.164.253.438.945.822 2.075l1.135-.398c-.295-1.294-.52-1.938-.555-2.137l-.39-2.136zm-103.128 2.227-.177.108-.246 1.438c-.09.246-.386 1.37-.92 3.405l1.212.333.891-2.21.33-.432h.615c.788.226 1.76.41 2.787.732l2.09.596c-.062.308-.426 1.65-1.145 4.013l-2.56 8.785c-.583 2.096-.994 3.364-1.233 3.755l-.63.464c-.218.041-.946-.081-2.151-.382l-.35 1.191c1.856.445 3.46.855 4.836 1.246 1.328.356 2.889.89 4.758 1.548l.337-1.227c-1.15-.363-1.829-.644-2.014-.822l-.274-.704c.02-.5.322-1.739.932-3.841l2.575-8.78c.672-2.335 1.069-3.692 1.212-4.014l2.06.632c1.137.35 2.089.636 2.876.917l.473.26v.698l-.437 2.185 1.184.398c.616-2.061.944-3.137.978-3.233l.632-1.487-.118-.17-1.382-.287c-.849-.226-2.513-.713-4.971-1.384l-5.904-1.746c-2.383-.699-3.998-1.17-4.84-1.451zm82.346 3.8a17.19 17.19 0 0 0-3.143.28 16.21 16.21 0 0 0-2.897.912c-.917.431-1.726.97-2.39 1.648-.665.665-1.137 1.514-1.418 2.548-.315.993-.343 2.123-.151 3.233l.857 2.123 1.541 1.562c.582.424 1.348.649 2.273.744.61.041 1.834.091 3.71.14 1.336.027 2.253.122 2.794.328l1.343.855.637 1.561-.123 2.088-1.315 1.692c-.685.493-1.526.815-2.458 1.007-1.075.198-2.157.2-3.143-.136-1.02-.288-1.76-.7-2.28-1.261-.329-1.027-.582-1.91-.678-2.63l-1.207.219c.384 2.342.576 4.089.48 5.307 1.267.315 2.397.528 3.41.576.98.034 2.095-.05 3.341-.275 1.65-.336 3.048-.869 4.17-1.554l1.927-1.815 1.266-2.286c.349-1.088.397-2.246.144-3.554l-.691-1.877-.953-1.348-1.417-.78-2.124-.35c-.308-.013-1.02 0-2.075 0-1.082 0-1.89.048-2.499 0l-1.87-.303-1.088-.793-.629-1.57c-.185-.903.048-1.787.657-2.608.61-.843 1.582-1.384 2.959-1.623.917-.192 1.8-.192 2.642 0l1.836.87c.212.418.402 1.252.683 2.417l1.212-.247c-.178-1.013-.252-1.862-.341-2.478l-.062-1.98-.198-.32c-.746-.24-1.684-.322-2.732-.322zm-56.695 1.726-1.87 3.205-5.559 9.003c-1.034 1.725-1.766 2.869-2.116 3.451-.794 1.205-1.266 1.92-1.389 2.131l-.431.396-.452.144-1.459-.124-.22 1.282 3.492.46 3.459.698.185-1.248c-1.171-.206-1.87-.445-2.104-.596l-.148-.596c.089-.335.437-1.19 1.183-2.429l.966-1.725 7.737 1.265.76 3.542.11 1.299-.307.398c-.158.041-.87 0-2.075-.136l-.213 1.253 5.3.786 4.157.796.226-1.282-.665-.184-.868-.255-.275-.205-.233-.457-.35-1.474-.6-2.203-4.096-16.813zm21.817 1.759c-1.047-.006-2.08.028-3.066.275-.965.198-1.83.637-2.645 1.109a5.593 5.593 0 0 0-1.91 2.211c-.507.98-.74 1.994-.76 3.13l.364 2.286 1.184 1.808c.514.547 1.212.946 2.096 1.186.595.171 1.759.47 3.608.93 1.294.273 2.186.548 2.686.829l1.101 1.11.308 1.697-.513 2.028-1.636 1.39c-.794.349-1.65.5-2.609.472a6.384 6.384 0 0 1-3.069-.78c-.938-.46-1.553-1.02-1.944-1.677-.11-1.041-.18-1.974-.159-2.748h-1.258c-.034 2.383-.233 4.115-.555 5.28 1.158.582 2.225 1.05 3.197 1.248.952.246 2.097.41 3.336.41 1.692 0 3.184-.198 4.376-.698l2.26-1.371 1.725-1.985c.569-.98.827-2.108.848-3.444l-.247-1.972-.76-1.515-1.163-1.032-2.026-.796c-.288-.096-.987-.178-2.021-.37-1.014-.213-1.876-.383-2.458-.527l-1.761-.69-.889-1.002-.316-1.656c0-.945.39-1.74 1.192-2.424.76-.671 1.814-1.022 3.217-.994.966.027 1.844.186 2.584.542l1.643 1.204c.076.514.11 1.329.124 2.486l1.266.07c.054-1.049.11-1.863.172-2.54l.341-1.911-.123-.37c-.712-.39-1.596-.698-2.589-.924a20.656 20.656 0 0 0-3.15-.275zm-22.918 3.443 1.923 8.32c-.938-.15-1.964-.272-3.107-.505a286.043 286.043 0 0 1-3.2-.547z" style="fill:#c2072e;fill-opacity:1;fill-rule:nonzero;stroke:none;stroke-width:1.75304"/></svg>