<svg width="90" height="90" viewBox="0 0 90 90" fill="none" xmlns="http://www.w3.org/2000/svg">
<path d="M35.8332 13.6482H30.8332C25.3104 13.6482 20.8333 18.1253 20.8333 23.6482V68.648C20.8333 74.1708 25.3104 78.6479 30.8332 78.6479H35.8332C41.356 78.6479 45.8331 74.1708 45.8331 68.648V23.6482C45.8331 18.1253 41.356 13.6482 35.8332 13.6482Z" stroke="#5D5A88" stroke-width="2" stroke-linecap="round" stroke-linejoin="round"/>
<path d="M22.1666 73.648H17.5C14.8478 73.648 12.3043 72.5944 10.4289 70.719C8.55356 68.8437 7.5 66.3002 7.5 63.648V28.6482C7.5 25.996 8.55356 23.4525 10.4289 21.5771C12.3043 19.7018 14.8478 18.6482 17.5 18.6482H22.1666" stroke="#5D5A88" stroke-width="2" stroke-linecap="round" stroke-linejoin="round"/>
<path d="M44.502 73.6481H72.5018C75.154 73.6481 77.6975 72.5945 79.5729 70.7192C81.4482 68.8438 82.5018 66.3003 82.5018 63.6481V28.6483C82.5018 25.9961 81.4482 23.4526 79.5729 21.5772C77.6975 19.7019 75.154 18.6483 72.5018 18.6483H44.502" stroke="#5D5A88" stroke-width="2" stroke-linecap="round" stroke-linejoin="round"/>
<path d="M56.6675 30.3149H71.6674" stroke="#5D5A88" stroke-width="2" stroke-linecap="round" stroke-linejoin="round"/>
</svg>
