<svg width="90" height="90" viewBox="0 0 90 90" fill="none" xmlns="http://www.w3.org/2000/svg">
<path d="M81.2372 34.8297L45.0153 7.5L8.76016 34.8297C8.01065 35.5213 7.55997 36.4777 7.50366 37.496V79.2304C7.5063 80.0941 7.85056 80.9217 8.46128 81.5324C9.072 82.1431 9.89955 82.4874 10.7632 82.49H32.5003V65.0023C32.5003 61.6876 33.8171 58.5086 36.161 56.1647C38.5049 53.8208 41.6839 52.504 44.9987 52.504C48.3134 52.504 51.4924 53.8208 53.8363 56.1647C56.1802 58.5086 57.497 61.6876 57.497 65.0023V82.5H79.2308C80.0948 82.4974 80.9226 82.1532 81.5339 81.5426C82.1451 80.932 82.4901 80.1044 82.4937 79.2404V37.496C82.436 36.478 81.9855 35.5222 81.2372 34.8297Z" stroke="#5D5A88" stroke-width="2" stroke-linecap="round" stroke-linejoin="round"/>
</svg>
