<svg width="30" height="31" viewBox="0 0 30 31" fill="none" xmlns="http://www.w3.org/2000/svg">
<path d="M15 28.1729C21.9036 28.1729 27.5 22.5764 27.5 15.6729C27.5 8.76929 21.9036 3.17285 15 3.17285C8.09644 3.17285 2.5 8.76929 2.5 15.6729C2.5 22.5764 8.09644 28.1729 15 28.1729Z" stroke="white" stroke-width="2" stroke-linecap="round" stroke-linejoin="round"/>
<path d="M15 21.9229V15.6729" stroke="white" stroke-width="2" stroke-linecap="round" stroke-linejoin="round"/>
<path d="M15.0004 9.83557C14.8613 9.83557 14.7253 9.87682 14.6097 9.95409C14.494 10.0314 14.4039 10.1412 14.3507 10.2697C14.2974 10.3982 14.2835 10.5396 14.3106 10.676C14.3378 10.8124 14.4047 10.9377 14.5031 11.0361C14.6014 11.1344 14.7267 11.2014 14.8632 11.2285C14.9996 11.2557 15.141 11.2417 15.2695 11.1885C15.398 11.1353 15.5078 11.0452 15.5851 10.9295C15.6624 10.8139 15.7036 10.6779 15.7036 10.5388C15.7038 10.4464 15.6858 10.3548 15.6506 10.2694C15.6153 10.184 15.5635 10.1063 15.4982 10.041C15.4328 9.97565 15.3552 9.92385 15.2698 9.8886C15.1843 9.85335 15.0928 9.83533 15.0004 9.83557Z" fill="white" stroke="white" stroke-width="2" stroke-linecap="round" stroke-linejoin="round"/>
</svg>
