<svg width="90" height="90" viewBox="0 0 90 90" fill="none" xmlns="http://www.w3.org/2000/svg">
<path d="M11.5669 10.817L52.06 22.3267C54.8036 23.2279 57.2001 24.9582 58.9188 27.279C60.6375 29.5998 61.5938 32.3967 61.6557 35.2839V74.1924C61.7711 75.4208 61.5857 76.6588 61.1153 77.7995C60.6449 78.9401 59.9038 79.949 58.9561 80.7389C58.0083 81.5288 56.8824 82.076 55.6757 82.3332C54.469 82.5903 53.2178 82.5497 52.0303 82.2148L18.5342 73.1077C15.79 72.2539 13.3839 70.5586 11.6565 68.2618C9.92909 65.965 8.96785 63.183 8.90886 60.3097V17.9139C8.84806 15.2248 9.85316 12.6207 11.7049 10.6698C13.5566 8.71893 16.1047 7.57946 18.7933 7.5H69.9853C72.9308 7.5 75.7557 8.67011 77.8385 10.7529C79.9213 12.8357 81.0914 15.6606 81.0914 18.6062V51.7506C81.0784 53.2479 80.77 54.7279 80.1839 56.1058C79.5978 57.4837 78.7455 58.7324 77.6759 59.7803C76.6064 60.8282 75.3405 61.6547 73.9509 62.2125C72.5613 62.7703 71.0753 63.0483 69.578 63.0308H61.6557" stroke="#5D5A88" stroke-width="2" stroke-linecap="round" stroke-linejoin="round"/>
<path d="M46.3846 49.1482C46.6592 49.1482 46.9276 49.2296 47.1559 49.3822C47.3842 49.5347 47.5621 49.7515 47.6672 50.0052C47.7723 50.2589 47.7998 50.538 47.7462 50.8073C47.6926 51.0766 47.5604 51.324 47.3663 51.5181C47.1721 51.7123 46.9247 51.8445 46.6554 51.8981C46.3861 51.9516 46.107 51.9241 45.8533 51.8191C45.5997 51.714 45.3828 51.536 45.2303 51.3077C45.0778 51.0794 44.9963 50.811 44.9963 50.5365C44.9963 50.1683 45.1426 49.8152 45.403 49.5548C45.6633 49.2945 46.0164 49.1482 46.3846 49.1482" stroke="#5D5A88" stroke-width="2" stroke-linecap="round" stroke-linejoin="round"/>
</svg>
