<svg width="90" height="90" viewBox="0 0 90 90" fill="none" xmlns="http://www.w3.org/2000/svg">
<path d="M45.0059 81.1482C52.4222 81.147 59.6716 78.9469 65.8375 74.8259C72.0035 70.7049 76.809 64.8481 79.6466 57.9961C82.4842 51.1441 83.2263 43.6046 81.7792 36.3309C80.332 29.0571 76.7606 22.3758 71.5165 17.1317C66.2724 11.8876 59.5911 8.31618 52.3173 6.86905C45.0436 5.42192 37.5041 6.16405 30.6521 9.0016C23.8001 11.8392 17.9433 16.6447 13.8223 22.8107C9.70134 28.9766 7.50116 36.226 7.5 43.6423C7.49923 48.5679 8.46882 53.4453 10.3534 57.9961C12.238 62.5469 15.0006 66.6818 18.4835 70.1647C21.9664 73.6476 26.1013 76.4102 30.6521 78.2948C35.2029 80.1794 40.0803 81.149 45.0059 81.1482V81.1482Z" stroke="#5D5A88" stroke-width="2" stroke-linecap="round" stroke-linejoin="round"/>
<path d="M9.38208 55.407H79.5585" stroke="#5D5A88" stroke-width="2" stroke-linecap="round" stroke-linejoin="round"/>
<path d="M9.38208 31.8776H79.5585" stroke="#5D5A88" stroke-width="2" stroke-linecap="round" stroke-linejoin="round"/>
<path d="M36.9129 7.02478C30.1822 31.3097 31.1731 57.087 39.7482 80.7836" stroke="#5D5A88" stroke-width="2" stroke-linecap="round" stroke-linejoin="round"/>
<path d="M53.0873 7.02478C56.0274 17.5934 57.5117 28.5137 57.4991 39.4836C57.5288 53.5651 55.092 67.5429 50.2991 80.7836" stroke="#5D5A88" stroke-width="2" stroke-linecap="round" stroke-linejoin="round"/>
</svg>
